<?xml version="1.0" encoding="UTF-8" standalone="no"?>
<!-- Generator: Adobe Illustrator 19.0.0, SVG Export Plug-In . SVG Version: 6.00 Build 0)  -->

<svg
   xmlns:dc="http://purl.org/dc/elements/1.1/"
   xmlns:cc="http://creativecommons.org/ns#"
   xmlns:rdf="http://www.w3.org/1999/02/22-rdf-syntax-ns#"
   xmlns:svg="http://www.w3.org/2000/svg"
   xmlns="http://www.w3.org/2000/svg"
   xmlns:sodipodi="http://sodipodi.sourceforge.net/DTD/sodipodi-0.dtd"
   xmlns:inkscape="http://www.inkscape.org/namespaces/inkscape"
   version="1.1"
   id="Capa_1"
   x="0px"
   y="0px"
   viewBox="0 0 384 384"
   style="enable-background:new 0 0 384 384;"
   xml:space="preserve"
   sodipodi:docname="cloudy-night.svg"
   inkscape:version="0.92.3 (2405546, 2018-03-11)"><metadata
   id="metadata55"><rdf:RDF><cc:Work
       rdf:about=""><dc:format>image/svg+xml</dc:format><dc:type
         rdf:resource="http://purl.org/dc/dcmitype/StillImage" /></cc:Work></rdf:RDF></metadata><defs
   id="defs53" /><sodipodi:namedview
   pagecolor="#ffffff"
   bordercolor="#666666"
   borderopacity="1"
   objecttolerance="10"
   gridtolerance="10"
   guidetolerance="10"
   inkscape:pageopacity="0"
   inkscape:pageshadow="2"
   inkscape:window-width="2560"
   inkscape:window-height="1377"
   id="namedview51"
   showgrid="false"
   inkscape:zoom="0.61458333"
   inkscape:cx="-362.84746"
   inkscape:cy="192"
   inkscape:window-x="-8"
   inkscape:window-y="-8"
   inkscape:window-maximized="1"
   inkscape:current-layer="Capa_1" />
<g
   id="g6"
   style="fill:#F2E9E4">
	<g
   id="g4"
   style="fill:#F2E9E4">
		<path
   d="M367.928,162.72c-1.424,0-2.816,0.256-4.192,0.632c-0.336,0.088-0.656,0.184-0.976,0.296    c-0.296,0.104-0.608,0.152-0.904,0.272c-13.088,5.36-26.96,8.08-41.216,8.08C260.736,172,212,123.264,212,63.36    c0-14.256,2.72-28.12,8.088-41.216c0.112-0.28,0.16-0.592,0.264-0.88c0.12-0.344,0.216-0.688,0.312-1.048    c0.352-1.312,0.584-2.656,0.6-4c0-0.048,0.024-0.088,0.024-0.136V16c0-8.832-7.168-15.96-16-15.96    c-1.544,0-3.008,0.288-4.424,0.696c-0.408,0.12-0.776,0.272-1.168,0.416c-0.464,0.176-0.968,0.288-1.408,0.504    c-16.848,6.984-32.032,17.152-45.136,30.24C118.912,66.224,105.08,115.512,115.408,162c-37.632,8.288-65.904,41.88-65.968,82.024    C20.384,253.32,0,280.32,0,312.24C0,351.808,32.12,384,71.6,384H220c46.32,0,84-37.752,84-84.16c0-12.144-2.672-23.976-7.6-34.832    c20.912-6.784,39.888-18.344,55.712-34.176c13.024-13.016,23.168-28.128,30.16-44.92c0.232-0.456,0.344-0.976,0.536-1.456    c0.152-0.4,0.312-0.776,0.432-1.184c0.432-1.456,0.728-2.96,0.728-4.552C383.968,169.888,376.768,162.72,367.928,162.72z M220,352    H71.6C49.768,352,32,334.168,32,312.24c0-20.728,15.496-37.704,36.032-39.504c4.512-0.392,8.64-2.68,11.376-6.288    c2.728-3.616,3.8-8.208,2.944-12.664c-0.616-3.224-0.912-6.368-0.912-9.632c0-28.76,23.328-52.16,52.248-52.216    c0.664,0.112,1.336,0.176,2.016,0.208c25.072,0.976,45.784,19.736,49.248,44.616c0.64,4.64,3.288,8.768,7.24,11.288    c3.952,2.52,8.824,3.184,13.288,1.808c4.48-1.368,9.504-2.096,14.512-2.096c14.816,0,29.008,6.392,38.912,17.504    C267.352,274.776,272,287.056,272,299.84C272,328.6,248.672,352,220,352z M329.48,208.2c-14.76,14.76-33.056,24.728-53.28,29.168    c-15.384-13.816-35.4-21.608-56.2-21.608c-2.456,0-4.888,0.104-7.296,0.312c-9.952-28.376-34.544-49.368-64.408-54.632    c-10.824-37.752-0.528-78.84,27.496-106.928c1.552-1.552,3.216-2.944,4.84-4.392C180.224,54.496,180,58.912,180,63.352    c0,77.552,63.096,140.64,140.64,140.64c4.44,0,8.848-0.216,13.224-0.624C332.424,204.992,331.032,206.648,329.48,208.2z"
   id="path2"
   style="fill:#F2E9E4" />
	</g>
</g>
<g
   id="g12"
   style="fill:#F2E9E4">
	<g
   id="g10"
   style="fill:#F2E9E4">
		<path
   d="M288,80c-13.232,0-24,10.768-24,24s10.768,24,24,24s24-10.768,24-24S301.232,80,288,80z"
   id="path8"
   style="fill:#F2E9E4" />
	</g>
</g>
<g
   id="g18">
	<g
   id="g16">
		<path
   d="M360,0c-13.232,0-24,10.768-24,24s10.768,24,24,24s24-10.768,24-24S373.232,0,360,0z"
   id="path14"
   style="fill:#F2E9E4" />
	</g>
</g>
<g
   id="g20">
</g>
<g
   id="g22">
</g>
<g
   id="g24">
</g>
<g
   id="g26">
</g>
<g
   id="g28">
</g>
<g
   id="g30">
</g>
<g
   id="g32">
</g>
<g
   id="g34">
</g>
<g
   id="g36">
</g>
<g
   id="g38">
</g>
<g
   id="g40">
</g>
<g
   id="g42">
</g>
<g
   id="g44">
</g>
<g
   id="g46">
</g>
<g
   id="g48">
</g>
</svg>