<?xml version="1.0" encoding="UTF-8" standalone="no"?>
<!-- Generator: Adobe Illustrator 19.0.0, SVG Export Plug-In . SVG Version: 6.00 Build 0)  -->

<svg
   xmlns:dc="http://purl.org/dc/elements/1.1/"
   xmlns:cc="http://creativecommons.org/ns#"
   xmlns:rdf="http://www.w3.org/1999/02/22-rdf-syntax-ns#"
   xmlns:svg="http://www.w3.org/2000/svg"
   xmlns="http://www.w3.org/2000/svg"
   xmlns:sodipodi="http://sodipodi.sourceforge.net/DTD/sodipodi-0.dtd"
   xmlns:inkscape="http://www.inkscape.org/namespaces/inkscape"
   version="1.1"
   id="Capa_1"
   x="0px"
   y="0px"
   viewBox="0 0 448.005 448.005"
   style="enable-background:new 0 0 448.005 448.005;"
   xml:space="preserve"
   sodipodi:docname="fog.svg"
   inkscape:version="0.92.3 (2405546, 2018-03-11)"><metadata
   id="metadata61"><rdf:RDF><cc:Work
       rdf:about=""><dc:format>image/svg+xml</dc:format><dc:type
         rdf:resource="http://purl.org/dc/dcmitype/StillImage" /></cc:Work></rdf:RDF></metadata><defs
   id="defs59" /><sodipodi:namedview
   pagecolor="#ffffff"
   bordercolor="#666666"
   borderopacity="1"
   objecttolerance="10"
   gridtolerance="10"
   guidetolerance="10"
   inkscape:pageopacity="0"
   inkscape:pageshadow="2"
   inkscape:window-width="732"
   inkscape:window-height="480"
   id="namedview57"
   showgrid="false"
   inkscape:zoom="0.52677983"
   inkscape:cx="224.0025"
   inkscape:cy="224.0025"
   inkscape:window-x="0"
   inkscape:window-y="0"
   inkscape:window-maximized="0"
   inkscape:current-layer="Capa_1" />
<g
   id="g6"
   style="fill:#F2E9E4">
	<g
   id="g4"
   style="fill:#F2E9E4">
		<path
   d="M436.874,68.559L394.57,55.055c-38.176-12.288-80.32-8.256-115.424,10.976c-33.984,18.656-76.256,18.688-110.272,0    c-35.04-19.232-77.12-23.264-115.456-10.976L11.146,68.559C2.698,71.247-1.942,80.239,0.778,88.687    c2.688,8.384,11.648,13.024,20.096,10.336l42.272-13.536c30.048-9.536,62.944-6.464,90.336,8.576    c21.76,11.936,46.144,17.888,70.528,17.888c24.384,0,48.736-5.952,70.496-17.856c27.424-15.072,60.32-18.176,90.304-8.576    l42.304,13.504c8.576,2.752,17.44-1.984,20.128-10.368C449.93,80.239,445.29,71.247,436.874,68.559z"
   id="path2"
   style="fill:#F2E9E4" />
	</g>
</g>
<g
   id="g12"
   style="fill:#F2E9E4">
	<g
   id="g10"
   style="fill:#F2E9E4">
		<path
   d="M436.874,164.559l-42.304-13.504c-38.176-12.224-80.32-8.256-115.424,10.976c-33.984,18.656-76.256,18.688-110.272,0    c-35.072-19.264-77.152-23.296-115.456-10.976l-42.272,13.504c-8.448,2.688-13.088,11.68-10.368,20.128    c2.688,8.384,11.648,12.992,20.096,10.336l42.272-13.536c30.048-9.536,62.944-6.464,90.336,8.576    c21.76,11.936,46.144,17.888,70.528,17.888c24.384,0,48.736-5.952,70.496-17.856c27.424-15.072,60.32-18.176,90.304-8.576    l42.304,13.504c8.576,2.752,17.44-1.952,20.128-10.368S445.29,167.247,436.874,164.559z"
   id="path8"
   style="fill:#F2E9E4" />
	</g>
</g>
<g
   id="g18"
   style="fill:#F2E9E4">
	<g
   id="g16"
   style="fill:#F2E9E4">
		<path
   d="M436.842,260.559l-42.24-13.472c-38.304-12.384-80.288-8.32-115.456,10.944c-33.984,18.624-76.256,18.624-110.272,0    c-35.104-19.264-77.152-23.264-115.424-10.976l-42.272,13.504c-8.416,2.688-13.056,11.68-10.368,20.128    c2.688,8.384,11.648,12.96,20.096,10.368l42.272-13.504c29.952-9.664,62.88-6.496,90.304,8.512    c21.76,11.936,46.144,17.888,70.528,17.888c24.384,0,48.736-5.952,70.496-17.856c27.424-15.04,60.32-18.24,90.304-8.544    l42.272,13.504c8.512,2.624,17.408-1.984,20.128-10.368C449.898,272.239,445.258,263.247,436.842,260.559z"
   id="path14"
   style="fill:#F2E9E4" />
	</g>
</g>
<g
   id="g24"
   style="fill:#F2E9E4">
	<g
   id="g22"
   style="fill:#F2E9E4">
		<path
   d="M436.842,356.527l-42.24-13.472c-38.304-12.352-80.288-8.32-115.456,10.944c-33.952,18.624-76.256,18.656-110.272,0    c-35.072-19.232-77.184-23.168-115.456-10.976l-42.272,13.504c-8.416,2.688-13.056,11.68-10.368,20.128    c2.688,8.384,11.648,12.928,20.096,10.368l42.272-13.504c29.984-9.6,62.88-6.496,90.336,8.544    c21.76,11.936,46.144,17.888,70.528,17.888c24.384,0,48.736-5.952,70.496-17.888c27.424-15.04,60.32-18.208,90.304-8.544    l42.272,13.504c8.512,2.624,17.408-1.984,20.128-10.368C449.898,368.207,445.258,359.215,436.842,356.527z"
   id="path20"
   style="fill:#F2E9E4" />
	</g>
</g>
<g
   id="g26"
   style="fill:#F2E9E4">
</g>
<g
   id="g28"
   style="fill:#F2E9E4">
</g>
<g
   id="g30"
   style="fill:#F2E9E4">
</g>
<g
   id="g32"
   style="fill:#F2E9E4">
</g>
<g
   id="g34"
   style="fill:#F2E9E4">
</g>
<g
   id="g36"
   style="fill:#F2E9E4">
</g>
<g
   id="g38"
   style="fill:#F2E9E4">
</g>
<g
   id="g40"
   style="fill:#F2E9E4">
</g>
<g
   id="g42"
   style="fill:#F2E9E4">
</g>
<g
   id="g44"
   style="fill:#F2E9E4">
</g>
<g
   id="g46"
   style="fill:#F2E9E4">
</g>
<g
   id="g48"
   style="fill:#F2E9E4">
</g>
<g
   id="g50"
   style="fill:#F2E9E4">
</g>
<g
   id="g52"
   style="fill:#F2E9E4">
</g>
<g
   id="g54"
   style="fill:#F2E9E4">
</g>
</svg>