<?xml version="1.0" encoding="iso-8859-1"?>
<!-- Generator: Adobe Illustrator 19.0.0, SVG Export Plug-In . SVG Version: 6.00 Build 0)  -->
<svg version="1.1" id="Layer_1" xmlns="http://www.w3.org/2000/svg" xmlns:xlink="http://www.w3.org/1999/xlink" x="0px" y="0px"
	 viewBox="0 0 512 512" style="enable-background:new 0 0 512 512;" xml:space="preserve">
<path style="fill:#EAC71C;" d="M433.617,172.357c-7.227-25.448-22.699-47.429-43.345-62.869
	c-19.882-14.868-44.562-23.675-71.299-23.675h-0.001c-26.736,0-51.416,8.806-71.299,23.675
	c-20.646,15.441-36.118,37.421-43.345,62.869c-0.227,0.799-0.43,1.607-0.641,2.412c25.252,5.363,45.186,25.083,50.866,50.22
	c3.965-1.322,8.204-2.049,12.615-2.049c13.575,0,25.559,6.8,32.745,17.171c4.011-1.035,8.217-1.592,12.552-1.592
	c27.568,0,49.916,22.348,49.916,49.916c0,11.827-4.122,22.687-10.997,31.24c1.064-0.3,2.125-0.609,3.178-0.938
	c0.174-0.055,0.345-0.113,0.52-0.169c0.957-0.303,1.91-0.62,2.858-0.949c0.333-0.115,0.664-0.232,0.995-0.351
	c0.855-0.303,1.703-0.617,2.548-0.94c0.274-0.105,0.548-0.206,0.821-0.312c1.089-0.426,2.173-0.865,3.245-1.322
	c0.2-0.084,0.396-0.174,0.596-0.26c0.884-0.38,1.764-0.773,2.636-1.175c0.318-0.148,0.637-0.295,0.953-0.445
	c0.827-0.39,1.646-0.788,2.46-1.197c0.245-0.12,0.489-0.239,0.732-0.363c1.033-0.525,2.059-1.064,3.076-1.621
	c0.215-0.117,0.427-0.241,0.643-0.358c0.812-0.451,1.619-0.91,2.419-1.377c0.151-0.089,0.305-0.171,0.457-0.26l0.078-0.057
	c6.093-3.607,11.839-7.737,17.17-12.337l0.019-0.013c0.018-0.017,0.037-0.033,0.057-0.051c0.772-0.666,1.535-1.343,2.289-2.028
	l0.004-0.004c0.74-0.675,1.469-1.356,2.19-2.047c0.215-0.204,0.424-0.413,0.637-0.62c0.505-0.491,1.01-0.983,1.507-1.482
	c0.262-0.263,0.518-0.532,0.779-0.798c0.44-0.452,0.881-0.906,1.315-1.364c0.275-0.291,0.547-0.585,0.819-0.88
	c0.41-0.44,0.818-0.884,1.22-1.332c0.28-0.31,0.555-0.622,0.829-0.935c0.39-0.441,0.776-0.886,1.158-1.333
	c0.275-0.322,0.548-0.645,0.82-0.969c0.375-0.448,0.746-0.9,1.114-1.355c0.268-0.329,0.534-0.657,0.799-0.99
	c0.367-0.463,0.73-0.929,1.09-1.397c0.253-0.33,0.508-0.657,0.758-0.99c0.368-0.487,0.729-0.98,1.088-1.471
	c0.233-0.321,0.47-0.638,0.698-0.96c0.384-0.536,0.76-1.079,1.134-1.623c0.198-0.284,0.397-0.564,0.59-0.852
	c0.487-0.717,0.964-1.441,1.433-2.168c0.076-0.117,0.153-0.232,0.23-0.349c0.543-0.847,1.075-1.701,1.596-2.562
	c0.159-0.263,0.313-0.532,0.472-0.798c0.358-0.599,0.715-1.199,1.061-1.807c0.195-0.339,0.381-0.683,0.572-1.024
	c0.301-0.54,0.603-1.079,0.896-1.623c0.201-0.372,0.396-0.748,0.594-1.124c0.273-0.52,0.546-1.043,0.813-1.567
	c0.196-0.389,0.387-0.781,0.582-1.173c0.255-0.518,0.509-1.039,0.757-1.562c0.19-0.4,0.378-0.802,0.562-1.205
	c0.241-0.521,0.476-1.047,0.71-1.574c0.18-0.407,0.358-0.813,0.533-1.221c0.23-0.533,0.453-1.071,0.677-1.608
	c0.166-0.405,0.333-0.809,0.498-1.216c0.221-0.555,0.434-1.111,0.648-1.67c0.152-0.396,0.305-0.792,0.453-1.189
	c0.219-0.594,0.428-1.19,0.639-1.787c0.13-0.368,0.263-0.734,0.389-1.102c0.236-0.696,0.463-1.396,0.686-2.097
	c0.089-0.276,0.184-0.55,0.269-0.827c0.305-0.978,0.598-1.96,0.877-2.95c0.064-0.226,0.122-0.454,0.185-0.681
	c0.212-0.767,0.421-1.535,0.618-2.308c0.094-0.368,0.18-0.739,0.271-1.107c0.155-0.635,0.311-1.271,0.457-1.91
	c0.095-0.416,0.181-0.831,0.272-1.246c0.13-0.601,0.259-1.201,0.38-1.807c0.086-0.435,0.168-0.873,0.25-1.309
	c0.112-0.59,0.22-1.183,0.323-1.775c0.077-0.447,0.151-0.894,0.223-1.341c0.094-0.59,0.186-1.185,0.272-1.777
	c0.066-0.451,0.128-0.902,0.19-1.356c0.08-0.598,0.154-1.197,0.226-1.798c0.053-0.45,0.106-0.899,0.154-1.351
	c0.065-0.613,0.123-1.229,0.179-1.845c0.042-0.443,0.082-0.883,0.119-1.328c0.051-0.642,0.094-1.287,0.134-1.934
	c0.026-0.419,0.057-0.836,0.08-1.256c0.038-0.715,0.064-1.431,0.089-2.147c0.013-0.355,0.031-0.709,0.041-1.065
	c0.028-1.073,0.045-2.149,0.045-3.229C438.138,193.668,436.561,182.724,433.617,172.357z"/>
<path style="fill:#EDE21B;" d="M390.271,109.487c-19.062-14.255-42.54-22.914-68.007-23.607c-1.604,1.094-3.19,2.213-4.744,3.374
	c-22.92,17.141-40.097,41.543-48.12,69.794c-3.269,11.509-5.019,23.658-5.019,36.215c0,1.199,0.018,2.395,0.051,3.586
	c0.01,0.395,0.03,0.788,0.044,1.183c0.028,0.794,0.057,1.591,0.099,2.383c0.025,0.465,0.058,0.93,0.089,1.396
	c0.046,0.718,0.093,1.434,0.15,2.146c0.04,0.493,0.086,0.982,0.132,1.473c0.06,0.684,0.125,1.367,0.199,2.049
	c0.054,0.502,0.112,1.001,0.171,1.5c0.079,0.667,0.161,1.333,0.249,1.997c0.068,0.504,0.139,1.005,0.212,1.505
	c0.096,0.656,0.198,1.317,0.302,1.972c0.08,0.496,0.16,0.993,0.247,1.489c0.113,0.657,0.234,1.315,0.358,1.97
	c0.092,0.485,0.183,0.97,0.28,1.453c0.104,0.53,0.218,1.056,0.331,1.581c13.523,0.042,25.456,6.827,32.62,17.167
	c4.011-1.035,8.217-1.592,12.552-1.592c27.568,0,49.916,22.348,49.916,49.916c0,11.794-4.101,22.625-10.942,31.166
	c0.029,0.011,0.057,0.022,0.086,0.031c1.016-0.288,2.03-0.582,3.036-0.896c0.174-0.055,0.345-0.113,0.52-0.169
	c0.957-0.303,1.91-0.62,2.858-0.949c0.333-0.115,0.664-0.232,0.995-0.351c0.855-0.303,1.703-0.617,2.548-0.94
	c0.274-0.105,0.548-0.206,0.821-0.312c1.089-0.426,2.173-0.865,3.246-1.322c0.2-0.084,0.396-0.174,0.596-0.26
	c0.884-0.38,1.764-0.773,2.636-1.175c0.318-0.148,0.637-0.295,0.953-0.445c0.827-0.39,1.646-0.788,2.46-1.197
	c0.245-0.12,0.489-0.239,0.732-0.363c1.033-0.525,2.059-1.064,3.076-1.621c0.215-0.117,0.427-0.241,0.643-0.358
	c0.812-0.451,1.619-0.91,2.419-1.377c0.151-0.089,0.305-0.171,0.457-0.26l0.078-0.057c6.093-3.607,11.839-7.737,17.17-12.337
	l0.019-0.013c0.018-0.017,0.037-0.033,0.057-0.051c0.772-0.666,1.535-1.343,2.289-2.028l0.004-0.004
	c0.74-0.675,1.469-1.356,2.19-2.047c0.215-0.204,0.424-0.413,0.637-0.62c0.505-0.491,1.01-0.983,1.507-1.482
	c0.262-0.263,0.518-0.532,0.779-0.798c0.44-0.452,0.881-0.906,1.315-1.364c0.275-0.291,0.547-0.585,0.819-0.88
	c0.41-0.44,0.818-0.884,1.22-1.332c0.28-0.31,0.555-0.622,0.829-0.935c0.39-0.441,0.776-0.886,1.158-1.333
	c0.275-0.322,0.548-0.645,0.82-0.969c0.375-0.448,0.746-0.9,1.114-1.355c0.268-0.329,0.534-0.657,0.799-0.99
	c0.367-0.463,0.73-0.929,1.09-1.397c0.253-0.33,0.508-0.657,0.758-0.99c0.368-0.487,0.729-0.98,1.088-1.471
	c0.233-0.321,0.47-0.638,0.698-0.96c0.384-0.536,0.76-1.079,1.134-1.623c0.198-0.284,0.397-0.564,0.59-0.852
	c0.487-0.717,0.964-1.441,1.433-2.168c0.076-0.117,0.153-0.232,0.23-0.349c0.543-0.847,1.075-1.701,1.596-2.562
	c0.159-0.263,0.313-0.532,0.472-0.798c0.358-0.599,0.714-1.199,1.061-1.807c0.195-0.339,0.381-0.683,0.572-1.024
	c0.301-0.54,0.603-1.079,0.896-1.623c0.201-0.372,0.396-0.748,0.594-1.124c0.273-0.52,0.546-1.043,0.813-1.567
	c0.196-0.389,0.387-0.781,0.582-1.173c0.255-0.518,0.509-1.039,0.757-1.562c0.19-0.4,0.378-0.802,0.562-1.205
	c0.241-0.521,0.476-1.047,0.71-1.574c0.18-0.407,0.358-0.813,0.533-1.221c0.23-0.533,0.453-1.071,0.677-1.608
	c0.166-0.405,0.333-0.809,0.498-1.216c0.221-0.555,0.434-1.111,0.648-1.67c0.152-0.396,0.305-0.792,0.453-1.189
	c0.219-0.594,0.428-1.19,0.639-1.787c0.13-0.368,0.263-0.734,0.389-1.102c0.236-0.696,0.463-1.396,0.686-2.097
	c0.089-0.276,0.183-0.55,0.269-0.827c0.305-0.978,0.598-1.96,0.877-2.95c0.064-0.226,0.122-0.454,0.185-0.681
	c0.212-0.767,0.421-1.535,0.618-2.308c0.094-0.368,0.18-0.739,0.271-1.107c0.155-0.635,0.311-1.271,0.457-1.91
	c0.095-0.416,0.181-0.831,0.272-1.246c0.13-0.601,0.259-1.201,0.38-1.807c0.086-0.435,0.168-0.873,0.25-1.309
	c0.112-0.59,0.22-1.183,0.323-1.775c0.077-0.447,0.151-0.894,0.223-1.341c0.094-0.59,0.186-1.185,0.272-1.777
	c0.066-0.451,0.128-0.902,0.19-1.356c0.08-0.598,0.154-1.197,0.226-1.798c0.053-0.45,0.106-0.899,0.154-1.351
	c0.065-0.613,0.123-1.229,0.179-1.845c0.042-0.443,0.082-0.883,0.119-1.328c0.051-0.642,0.094-1.287,0.134-1.934
	c0.026-0.419,0.057-0.836,0.08-1.256c0.038-0.715,0.064-1.431,0.089-2.147c0.013-0.355,0.031-0.709,0.041-1.065
	c0.028-1.073,0.045-2.149,0.045-3.229c0-11.311-1.577-22.255-4.521-32.622C426.389,146.908,410.917,124.928,390.271,109.487z"/>
<path style="fill:#EF8229;" d="M405.561,229.618c1.01-3.559,1.808-7.208,2.377-10.932c0.228-1.491,0.419-2.991,0.572-4.505
	c0.308-3.025,0.465-6.094,0.465-9.201c0-1.037-0.025-2.067-0.058-3.094c-0.01-0.256-0.019-0.514-0.029-0.77
	c-0.044-1.024-0.097-2.045-0.175-3.061v-0.001c-0.078-1.017-0.178-2.026-0.288-3.033c-0.027-0.25-0.056-0.501-0.085-0.75
	c-0.239-2.008-0.543-3.996-0.911-5.961c-0.045-0.245-0.092-0.488-0.14-0.732c-0.383-1.961-0.832-3.897-1.341-5.812
	c-0.064-0.236-0.126-0.472-0.192-0.706c-0.525-1.909-1.111-3.791-1.756-5.646c-0.078-0.227-0.158-0.454-0.24-0.68
	c-0.661-1.851-1.379-3.674-2.155-5.466c-0.093-0.216-0.188-0.432-0.283-0.648c-0.79-1.787-1.638-3.543-2.539-5.268
	c-0.108-0.206-0.217-0.412-0.327-0.618c-0.914-1.717-1.882-3.4-2.902-5.048c-0.123-0.198-0.245-0.394-0.37-0.59
	c-4.329-6.876-9.56-13.127-15.531-18.583l-0.012-0.013c-0.022-0.019-0.042-0.038-0.064-0.057c-0.245-0.221-0.493-0.44-0.741-0.659
	c-0.273-0.245-0.545-0.489-0.821-0.73c-0.261-0.228-0.526-0.449-0.79-0.672c-0.269-0.23-0.536-0.46-0.808-0.684
	c-0.27-0.225-0.542-0.444-0.814-0.664c-0.271-0.219-0.541-0.439-0.814-0.655c-0.278-0.22-0.559-0.435-0.839-0.652
	c-0.273-0.21-0.546-0.422-0.82-0.628c-0.286-0.216-0.573-0.427-0.86-0.64c-0.276-0.203-0.553-0.406-0.829-0.605
	c-0.291-0.209-0.584-0.417-0.879-0.621c-0.281-0.199-0.562-0.393-0.845-0.586c-0.294-0.203-0.59-0.4-0.887-0.599
	c-0.287-0.192-0.575-0.382-0.865-0.569c-0.298-0.194-0.598-0.387-0.898-0.577c-0.292-0.187-0.588-0.369-0.883-0.552
	c-0.301-0.187-0.603-0.372-0.908-0.556c-0.3-0.179-0.602-0.356-0.903-0.533c-0.303-0.178-0.609-0.356-0.916-0.531
	c-0.305-0.175-0.612-0.345-0.921-0.515c-0.309-0.171-0.615-0.342-0.925-0.511c-0.314-0.168-0.63-0.334-0.947-0.498
	c-0.308-0.162-0.615-0.325-0.925-0.482c-0.323-0.165-0.651-0.325-0.976-0.485c-0.308-0.153-0.613-0.305-0.922-0.455
	c-0.34-0.162-0.683-0.318-1.025-0.478c-0.298-0.138-0.596-0.281-0.896-0.416c-0.413-0.186-0.829-0.365-1.246-0.545
	c-0.316-0.136-0.632-0.275-0.951-0.408c-0.561-0.234-1.121-0.466-1.687-0.69c-0.274-0.108-0.553-0.21-0.829-0.316
	c-0.39-0.15-0.778-0.301-1.169-0.445c-0.296-0.11-0.597-0.213-0.895-0.318c-0.375-0.133-0.748-0.268-1.124-0.396
	c-0.31-0.106-0.622-0.205-0.934-0.308c-0.369-0.12-0.737-0.243-1.107-0.36c-0.318-0.099-0.638-0.194-0.958-0.291
	c-0.367-0.111-0.734-0.221-1.104-0.329c-0.324-0.093-0.65-0.181-0.975-0.272c-0.368-0.101-0.738-0.203-1.107-0.299
	c-0.328-0.086-0.656-0.168-0.984-0.25c-0.373-0.093-0.747-0.186-1.121-0.274c-0.331-0.077-0.662-0.153-0.995-0.228
	c-0.376-0.084-0.75-0.165-1.128-0.246c-0.335-0.07-0.668-0.138-1.004-0.205c-0.38-0.073-0.761-0.148-1.144-0.219
	c-0.335-0.062-0.668-0.121-1.003-0.179c-0.387-0.068-0.776-0.131-1.163-0.193c-0.334-0.054-0.668-0.107-1.003-0.157
	c-0.394-0.057-0.79-0.112-1.187-0.165c-0.331-0.045-0.662-0.09-0.995-0.131c-0.404-0.05-0.81-0.095-1.215-0.138
	c-0.328-0.036-0.655-0.073-0.983-0.108c-0.418-0.04-0.835-0.074-1.254-0.111c-0.321-0.026-0.639-0.056-0.96-0.079
	c-0.44-0.033-0.883-0.059-1.325-0.084c-0.3-0.019-0.601-0.04-0.903-0.055c-0.491-0.023-0.987-0.04-1.48-0.056
	c-0.255-0.008-0.508-0.021-0.762-0.026c-0.745-0.019-1.493-0.028-2.242-0.029c0,0-0.009,0-0.013,0h-0.001h-0.013
	c-0.749,0.001-1.497,0.011-2.242,0.029c-0.255,0.006-0.508,0.019-0.761,0.026c-0.495,0.016-0.99,0.032-1.482,0.056
	c-0.301,0.015-0.602,0.036-0.902,0.055c-0.443,0.025-0.885,0.051-1.325,0.084c-0.321,0.023-0.639,0.053-0.958,0.079
	c-0.419,0.036-0.838,0.07-1.254,0.111c-0.329,0.033-0.656,0.072-0.984,0.108c-0.406,0.043-0.811,0.089-1.215,0.138
	c-0.332,0.041-0.662,0.085-0.993,0.131c-0.397,0.054-0.792,0.109-1.189,0.165c-0.335,0.051-0.668,0.104-1.002,0.157
	c-0.388,0.063-0.776,0.125-1.164,0.193c-0.336,0.058-0.668,0.118-1.003,0.179c-0.382,0.071-0.764,0.146-1.144,0.219
	c-0.336,0.068-0.67,0.135-1.004,0.205c-0.378,0.08-0.753,0.161-1.129,0.246c-0.332,0.074-0.663,0.151-0.994,0.228
	c-0.376,0.089-0.748,0.181-1.121,0.274c-0.328,0.082-0.656,0.164-0.984,0.25c-0.371,0.097-0.739,0.199-1.107,0.299
	c-0.326,0.091-0.652,0.179-0.977,0.272c-0.369,0.108-0.736,0.217-1.102,0.329c-0.321,0.097-0.64,0.192-0.958,0.291
	c-0.371,0.118-0.739,0.241-1.108,0.36c-0.311,0.103-0.623,0.203-0.933,0.308c-0.377,0.128-0.749,0.263-1.124,0.396
	c-0.298,0.106-0.599,0.208-0.895,0.318c-0.391,0.144-0.779,0.295-1.169,0.445c-0.276,0.106-0.555,0.208-0.829,0.316
	c-0.563,0.223-1.126,0.455-1.685,0.69c-0.318,0.133-0.635,0.272-0.952,0.408c-0.417,0.18-0.832,0.359-1.244,0.545
	c-0.3,0.135-0.598,0.277-0.896,0.416c-0.343,0.16-0.686,0.316-1.025,0.478c-0.311,0.15-0.616,0.303-0.924,0.457
	c-0.325,0.159-0.652,0.319-0.974,0.482c-0.311,0.159-0.618,0.322-0.927,0.484c-0.315,0.164-0.63,0.329-0.944,0.498
	c-0.31,0.167-0.617,0.339-0.925,0.511c-0.308,0.168-0.615,0.339-0.921,0.515c-0.307,0.175-0.612,0.353-0.917,0.531
	c-0.301,0.177-0.603,0.354-0.902,0.533c-0.304,0.183-0.607,0.369-0.908,0.556c-0.295,0.182-0.59,0.365-0.883,0.552
	c-0.301,0.19-0.601,0.383-0.899,0.577c-0.289,0.188-0.576,0.378-0.863,0.569c-0.297,0.199-0.594,0.396-0.888,0.599
	c-0.284,0.193-0.563,0.387-0.844,0.586c-0.295,0.204-0.587,0.411-0.879,0.621c-0.277,0.2-0.554,0.402-0.829,0.605
	c-0.287,0.212-0.575,0.425-0.86,0.64c-0.274,0.206-0.546,0.417-0.818,0.626c-0.282,0.217-0.562,0.434-0.841,0.655
	c-0.273,0.217-0.544,0.436-0.814,0.655c-0.272,0.22-0.544,0.439-0.814,0.664c-0.272,0.225-0.54,0.454-0.81,0.684
	c-0.263,0.223-0.527,0.445-0.788,0.672c-0.276,0.241-0.548,0.485-0.821,0.73c-0.248,0.219-0.496,0.438-0.741,0.659
	c-0.022,0.019-0.042,0.038-0.064,0.057l-0.012,0.013c-5.971,5.456-11.203,11.706-15.531,18.583c-0.124,0.196-0.247,0.393-0.37,0.59
	c-1.019,1.648-1.988,3.331-2.901,5.048c-0.11,0.206-0.219,0.412-0.327,0.618c-0.901,1.725-1.747,3.481-2.539,5.268
	c-0.095,0.215-0.19,0.431-0.283,0.648c-0.777,1.792-1.495,3.616-2.155,5.466c-0.081,0.226-0.161,0.453-0.24,0.68
	c-0.645,1.856-1.232,3.738-1.756,5.646c-0.066,0.235-0.128,0.471-0.192,0.706c-0.493,1.857-0.927,3.736-1.303,5.637
	c11.822,9.261,20.433,22.436,23.856,37.587c3.965-1.322,8.204-2.049,12.615-2.049c13.575,0,25.559,6.8,32.745,17.171
	c4.011-1.035,8.217-1.592,12.552-1.592c26.054,0,47.433,19.963,49.706,45.425c12.595-6.904,23.361-16.734,31.379-28.571"/>
<g>
	<path style="fill:#EDE21B;" d="M318.971,66.224c-4.77,0-8.635-3.866-8.635-8.635V20.586c0-4.768,3.865-8.635,8.635-8.635
		s8.635,3.866,8.635,8.635v37.003C327.606,62.358,323.741,66.224,318.971,66.224z"/>
	<path style="fill:#EDE21B;" d="M245.286,85.971c-2.983,0-5.886-1.549-7.486-4.318l-18.503-32.046
		c-2.384-4.129-0.968-9.411,3.161-11.795c4.129-2.384,9.412-0.969,11.796,3.16l18.503,32.046c2.384,4.129,0.969,9.411-3.161,11.795
		C248.236,85.599,246.751,85.971,245.286,85.971z"/>
	<path style="fill:#EDE21B;" d="M191.32,139.92c-1.465,0-2.949-0.373-4.309-1.158l-32.045-18.502
		c-4.129-2.384-5.546-7.665-3.161-11.795c2.385-4.129,7.667-5.544,11.796-3.16l32.045,18.502c4.129,2.384,5.544,7.665,3.16,11.795
		C197.207,138.371,194.304,139.92,191.32,139.92z"/>
	<path style="fill:#EDE21B;" d="M478.653,305.811c-1.465,0-2.949-0.373-4.309-1.157l-32.046-18.502
		c-4.129-2.385-5.544-7.666-3.16-11.796c2.384-4.129,7.665-5.543,11.795-3.161l32.046,18.502c4.129,2.385,5.544,7.665,3.16,11.796
		C484.541,304.262,481.638,305.811,478.653,305.811z"/>
	<path style="fill:#EDE21B;" d="M503.365,213.614h-37.003c-4.77,0-8.635-3.866-8.635-8.635s3.865-8.635,8.635-8.635h37.003
		c4.768,0,8.635,3.866,8.635,8.635S508.134,213.614,503.365,213.614z"/>
	<path style="fill:#EDE21B;" d="M446.623,139.92c-2.985,0-5.887-1.548-7.485-4.318c-2.384-4.129-0.969-9.411,3.16-11.796
		l32.046-18.502c4.129-2.381,9.411-0.967,11.795,3.161c2.384,4.129,0.969,9.411-3.16,11.796l-32.046,18.502
		C449.572,139.546,448.088,139.92,446.623,139.92z"/>
	<path style="fill:#EDE21B;" d="M392.658,85.971c-1.465,0-2.949-0.373-4.309-1.158c-4.129-2.384-5.546-7.665-3.161-11.795
		l18.504-32.046c2.384-4.129,7.665-5.544,11.795-3.16s5.544,7.665,3.16,11.795l-18.503,32.046
		C398.544,84.423,395.642,85.971,392.658,85.971z"/>
</g>
<path style="fill:#F29F26;" d="M408.887,201.115c-0.044-1.024-0.097-2.045-0.175-3.061v-0.001c-0.078-1.017-0.178-2.026-0.288-3.033
	c-0.027-0.25-0.056-0.501-0.085-0.75c-0.239-2.008-0.543-3.996-0.911-5.961c-0.045-0.245-0.092-0.488-0.14-0.732
	c-0.383-1.961-0.832-3.897-1.341-5.812c-0.064-0.236-0.126-0.472-0.192-0.706c-0.525-1.909-1.111-3.791-1.756-5.646
	c-0.078-0.227-0.158-0.454-0.24-0.68c-0.661-1.851-1.379-3.674-2.155-5.466c-0.093-0.216-0.188-0.432-0.283-0.648
	c-0.79-1.787-1.638-3.543-2.539-5.268c-0.108-0.206-0.217-0.412-0.327-0.618c-0.914-1.717-1.882-3.4-2.902-5.048
	c-0.123-0.198-0.245-0.394-0.37-0.59c-4.329-6.876-9.56-13.127-15.531-18.583l-0.012-0.013c-0.022-0.019-0.042-0.038-0.064-0.057
	c-0.245-0.221-0.493-0.44-0.741-0.659c-0.273-0.245-0.545-0.489-0.821-0.73c-0.261-0.228-0.526-0.449-0.79-0.672
	c-0.269-0.23-0.536-0.46-0.808-0.684c-0.27-0.225-0.542-0.444-0.814-0.664c-0.271-0.219-0.541-0.439-0.814-0.655
	c-0.278-0.22-0.559-0.435-0.839-0.652c-0.273-0.21-0.546-0.422-0.82-0.628c-0.286-0.216-0.573-0.427-0.86-0.64
	c-0.276-0.203-0.553-0.406-0.829-0.605c-0.291-0.209-0.584-0.417-0.879-0.621c-0.281-0.199-0.562-0.393-0.845-0.586
	c-0.294-0.203-0.59-0.4-0.887-0.599c-0.287-0.192-0.575-0.382-0.865-0.569c-0.298-0.194-0.598-0.387-0.898-0.577
	c-0.292-0.187-0.588-0.369-0.883-0.552c-0.301-0.187-0.603-0.372-0.908-0.556c-0.3-0.179-0.602-0.356-0.903-0.533
	c-0.303-0.178-0.609-0.356-0.916-0.531c-0.305-0.175-0.612-0.345-0.921-0.515c-0.309-0.171-0.615-0.342-0.925-0.511
	c-0.314-0.168-0.63-0.334-0.947-0.498c-0.308-0.162-0.615-0.325-0.925-0.482c-0.323-0.165-0.651-0.325-0.976-0.485
	c-0.308-0.153-0.613-0.305-0.922-0.455c-0.34-0.162-0.683-0.318-1.025-0.478c-0.298-0.138-0.596-0.281-0.896-0.416
	c-0.413-0.186-0.829-0.365-1.246-0.545c-0.316-0.136-0.632-0.275-0.951-0.408c-0.561-0.234-1.121-0.466-1.687-0.69
	c-0.274-0.108-0.553-0.21-0.829-0.316c-0.39-0.15-0.778-0.301-1.169-0.445c-0.296-0.11-0.597-0.213-0.895-0.318
	c-0.375-0.133-0.748-0.268-1.124-0.396c-0.31-0.106-0.622-0.205-0.934-0.308c-0.369-0.12-0.737-0.243-1.107-0.36
	c-0.318-0.099-0.638-0.194-0.958-0.291c-0.367-0.111-0.734-0.221-1.104-0.329c-0.324-0.093-0.65-0.181-0.975-0.272
	c-0.368-0.101-0.738-0.203-1.107-0.299c-0.328-0.086-0.656-0.168-0.984-0.25c-0.373-0.093-0.747-0.186-1.121-0.274
	c-0.331-0.077-0.662-0.153-0.995-0.228c-0.376-0.084-0.75-0.165-1.128-0.246c-0.335-0.07-0.668-0.138-1.004-0.205
	c-0.38-0.073-0.761-0.148-1.144-0.219c-0.335-0.062-0.668-0.121-1.003-0.179c-0.387-0.068-0.776-0.131-1.163-0.193
	c-0.334-0.054-0.668-0.107-1.003-0.157c-0.394-0.057-0.79-0.112-1.187-0.165c-0.331-0.045-0.662-0.09-0.995-0.131
	c-0.404-0.05-0.81-0.095-1.215-0.138c-0.328-0.036-0.655-0.073-0.983-0.108c-0.418-0.04-0.835-0.074-1.254-0.111
	c-0.321-0.026-0.639-0.056-0.96-0.079c-0.44-0.033-0.883-0.059-1.325-0.084c-0.3-0.019-0.601-0.04-0.903-0.055
	c-0.491-0.023-0.987-0.04-1.48-0.056c-0.255-0.008-0.508-0.021-0.762-0.026c-0.745-0.019-1.493-0.028-2.242-0.029
	c0,0-0.009,0-0.013,0h-0.001h-0.013c-0.749,0.001-1.497,0.011-2.242,0.029c-0.255,0.006-0.508,0.019-0.761,0.026
	c-0.495,0.016-0.99,0.032-1.482,0.056c-0.301,0.015-0.602,0.036-0.902,0.055c-0.443,0.025-0.885,0.051-1.325,0.084
	c-0.321,0.023-0.639,0.053-0.958,0.079c-0.419,0.036-0.838,0.07-1.254,0.111c-0.329,0.033-0.656,0.072-0.984,0.108
	c-0.406,0.043-0.811,0.089-1.215,0.138c-0.332,0.041-0.662,0.085-0.993,0.131c-0.397,0.054-0.792,0.109-1.189,0.165
	c-0.335,0.051-0.668,0.104-1.002,0.157c-0.388,0.063-0.776,0.125-1.164,0.193c-0.336,0.058-0.668,0.118-1.003,0.179
	c-0.382,0.071-0.764,0.146-1.144,0.219c-0.336,0.068-0.67,0.135-1.004,0.205c-0.378,0.08-0.753,0.161-1.129,0.246
	c-0.332,0.074-0.663,0.151-0.994,0.228c-0.376,0.089-0.748,0.181-1.121,0.274c-0.328,0.082-0.656,0.164-0.984,0.25
	c-0.371,0.097-0.739,0.199-1.107,0.299c-0.326,0.091-0.652,0.179-0.977,0.272c-0.369,0.108-0.736,0.217-1.102,0.329
	c-0.321,0.097-0.64,0.192-0.958,0.291c-0.371,0.118-0.739,0.241-1.108,0.36c-0.311,0.103-0.623,0.203-0.933,0.308
	c-0.377,0.128-0.749,0.263-1.124,0.396c-0.298,0.106-0.599,0.208-0.895,0.318c-0.162,0.059-0.324,0.122-0.485,0.185
	c-7.936,11.602-14.084,24.523-18.018,38.378c-3.269,11.509-5.019,23.658-5.019,36.215c0,1.199,0.018,2.395,0.051,3.586
	c0.01,0.395,0.03,0.788,0.044,1.183c0.028,0.794,0.057,1.591,0.099,2.383c0.025,0.465,0.058,0.93,0.089,1.396
	c0.046,0.718,0.093,1.434,0.15,2.146c0.04,0.493,0.086,0.982,0.132,1.473c0.06,0.684,0.125,1.367,0.199,2.049
	c0.054,0.502,0.112,1.001,0.171,1.5c0.079,0.667,0.161,1.333,0.249,1.997c0.068,0.504,0.139,1.005,0.212,1.505
	c0.096,0.656,0.198,1.317,0.302,1.972c0.08,0.497,0.16,0.993,0.247,1.489c0.113,0.657,0.234,1.315,0.358,1.97
	c0.092,0.485,0.183,0.97,0.28,1.453c0.104,0.53,0.218,1.056,0.331,1.581c13.523,0.042,25.456,6.827,32.62,17.167
	c4.011-1.035,8.217-1.592,12.552-1.592c26.054,0,47.433,19.963,49.706,45.425c12.595-6.904,23.361-16.734,31.379-28.571
	l12.01-25.756c1.01-3.559,1.808-7.208,2.377-10.932c0.228-1.491,0.419-2.991,0.572-4.505c0.308-3.025,0.465-6.094,0.465-9.201
	c0-1.037-0.025-2.067-0.058-3.094C408.907,201.629,408.898,201.371,408.887,201.115z"/>
<path style="fill:#9FDEF7;" d="M312.466,238.519c-4.336,0-8.542,0.558-12.552,1.592c-7.186-10.371-19.171-17.171-32.745-17.171
	c-4.412,0-8.651,0.727-12.615,2.049c-6.684-29.582-33.107-51.677-64.712-51.677c-36.649,0-66.36,29.71-66.36,66.36
	c0,0.756,0.031,1.503,0.057,2.253c-4.665-1.461-9.625-2.253-14.774-2.253c-27.248,0-49.339,22.089-49.339,49.341
	c0,27.249,22.09,49.336,49.339,49.336h130.464h35.674h37.565c27.568,0,49.916-22.347,49.916-49.914
	C362.383,260.867,340.034,238.519,312.466,238.519z"/>
<path style="fill:#83D4ED;" d="M152.946,235.884c0-19.654,3.098-38.582,8.813-56.338c-22.609,10.578-38.278,33.518-38.278,60.128
	c0,0.756,0.031,1.503,0.057,2.253c-4.665-1.461-9.625-2.253-14.774-2.253c-27.249,0-49.339,22.089-49.339,49.341
	c0,27.249,22.09,49.336,49.339,49.336h75.388C164.448,309.076,152.946,273.824,152.946,235.884z"/>
<g>
	<path style="fill:#5ABCE2;" d="M503.365,346.984H8.635c-4.768,0-8.635-3.866-8.635-8.635s3.866-8.635,8.635-8.635h494.731
		c4.768,0,8.635,3.866,8.635,8.635S508.134,346.984,503.365,346.984z"/>
	<path style="fill:#5ABCE2;" d="M473.043,398.007h-29.117c-4.768,0-8.635-3.866-8.635-8.635s3.866-8.635,8.635-8.635h29.117
		c4.768,0,8.635,3.866,8.635,8.635S477.811,398.007,473.043,398.007z"/>
	<path style="fill:#5ABCE2;" d="M415.863,398.007H38.957c-4.768,0-8.635-3.866-8.635-8.635s3.866-8.635,8.635-8.635h376.906
		c4.768,0,8.635,3.866,8.635,8.635S420.631,398.007,415.863,398.007z"/>
	<path style="fill:#5ABCE2;" d="M432.658,449.026H192.439c-4.768,0-8.635-3.866-8.635-8.635s3.866-8.635,8.635-8.635h240.22
		c4.77,0,8.635,3.866,8.635,8.635C441.293,445.16,437.428,449.026,432.658,449.026z"/>
	<path style="fill:#5ABCE2;" d="M163.3,449.026H79.342c-4.77,0-8.635-3.866-8.635-8.635s3.865-8.635,8.635-8.635H163.3
		c4.768,0,8.635,3.866,8.635,8.635C171.935,445.16,168.068,449.026,163.3,449.026z"/>
	<path style="fill:#5ABCE2;" d="M389.117,500.049H291.74c-4.768,0-8.635-3.866-8.635-8.635s3.866-8.635,8.635-8.635h97.377
		c4.768,0,8.635,3.866,8.635,8.635S393.886,500.049,389.117,500.049z"/>
	<path style="fill:#5ABCE2;" d="M261.516,500.049H122.885c-4.768,0-8.635-3.866-8.635-8.635s3.866-8.635,8.635-8.635h138.631
		c4.768,0,8.635,3.866,8.635,8.635S266.284,500.049,261.516,500.049z"/>
</g>
<g>
</g>
<g>
</g>
<g>
</g>
<g>
</g>
<g>
</g>
<g>
</g>
<g>
</g>
<g>
</g>
<g>
</g>
<g>
</g>
<g>
</g>
<g>
</g>
<g>
</g>
<g>
</g>
<g>
</g>
</svg>
