<?xml version="1.0" encoding="UTF-8" standalone="no"?>
<!-- Generator: Adobe Illustrator 19.0.0, SVG Export Plug-In . SVG Version: 6.00 Build 0)  -->

<svg
   xmlns:dc="http://purl.org/dc/elements/1.1/"
   xmlns:cc="http://creativecommons.org/ns#"
   xmlns:rdf="http://www.w3.org/1999/02/22-rdf-syntax-ns#"
   xmlns:svg="http://www.w3.org/2000/svg"
   xmlns="http://www.w3.org/2000/svg"
   xmlns:sodipodi="http://sodipodi.sourceforge.net/DTD/sodipodi-0.dtd"
   xmlns:inkscape="http://www.inkscape.org/namespaces/inkscape"
   version="1.1"
   id="Capa_1"
   x="0px"
   y="0px"
   viewBox="0 0 512.005 512.005"
   style="enable-background:new 0 0 512.005 512.005;"
   xml:space="preserve"
   sodipodi:docname="humidity.svg"
   inkscape:version="0.92.3 (2405546, 2018-03-11)"><metadata
   id="metadata57"><rdf:RDF><cc:Work
       rdf:about=""><dc:format>image/svg+xml</dc:format><dc:type
         rdf:resource="http://purl.org/dc/dcmitype/StillImage" /></cc:Work></rdf:RDF></metadata><defs
   id="defs55" /><sodipodi:namedview
   pagecolor="#ffffff"
   bordercolor="#666666"
   borderopacity="1"
   objecttolerance="10"
   gridtolerance="10"
   guidetolerance="10"
   inkscape:pageopacity="0"
   inkscape:pageshadow="2"
   inkscape:window-width="732"
   inkscape:window-height="480"
   id="namedview53"
   showgrid="false"
   inkscape:zoom="0.46093299"
   inkscape:cx="256.0025"
   inkscape:cy="256.0025"
   inkscape:window-x="0"
   inkscape:window-y="0"
   inkscape:window-maximized="0"
   inkscape:current-layer="Capa_1" />
<g
   id="g20"
   style="fill:#C9ADA7">
	<g
   id="g18"
   style="fill:#C9ADA7">
		<g
   id="g16"
   style="fill:#C9ADA7">
			<path
   d="M10.669,234.672c11.969,0,17.521,3.865,24.542,8.75c8.042,5.604,18.063,12.583,36.729,12.583     c18.677,0,28.708-6.979,36.76-12.583c7.031-4.885,12.583-8.75,24.563-8.75c12,0,17.563,3.865,24.604,8.76     c8.052,5.604,18.083,12.573,36.771,12.573c18.677,0,28.708-6.969,36.771-12.573c7.031-4.896,12.594-8.76,24.594-8.76     c5.896,0,10.667-4.771,10.667-10.667c0-5.896-4.771-10.667-10.667-10.667c-18.687,0-28.719,6.969-36.781,12.573     c-7.031,4.896-12.594,8.76-24.583,8.76c-12,0-17.563-3.865-24.594-8.76c-8.063-5.604-18.094-12.573-36.781-12.573     c-18.677,0-28.698,6.969-36.75,12.573c-7.031,4.896-12.583,8.76-24.573,8.76c-11.969,0-17.521-3.865-24.542-8.75     c-8.042-5.604-18.063-12.583-36.729-12.583c-5.896,0-10.667,4.771-10.667,10.667C0.003,229.901,4.773,234.672,10.669,234.672z"
   id="path2"
   style="fill:#C9ADA7" />
			<path
   d="M256.003,426.672c5.896,0,10.667-4.771,10.667-10.667s-4.771-10.667-10.667-10.667c-18.687,0-28.719,6.969-36.781,12.573     c-7.031,4.896-12.594,8.76-24.583,8.76c-12,0-17.563-3.865-24.594-8.76c-8.063-5.604-18.094-12.573-36.781-12.573     c-18.677,0-28.698,6.969-36.75,12.573c-7.031,4.896-12.583,8.76-24.573,8.76c-11.969,0-17.521-3.865-24.542-8.75     c-8.042-5.604-18.063-12.583-36.729-12.583c-5.896,0-10.667,4.771-10.667,10.667s4.771,10.667,10.667,10.667     c11.969,0,17.521,3.865,24.542,8.75c8.042,5.604,18.063,12.583,36.729,12.583c18.677,0,28.708-6.979,36.76-12.583     c7.031-4.885,12.583-8.75,24.563-8.75c12,0,17.563,3.865,24.604,8.76c8.052,5.604,18.083,12.573,36.771,12.573     c18.677,0,28.708-6.969,36.771-12.573C238.44,430.536,244.002,426.672,256.003,426.672z"
   id="path4"
   style="fill:#C9ADA7" />
			<path
   d="M10.669,362.672c11.969,0,17.521,3.865,24.542,8.75c8.042,5.604,18.063,12.583,36.729,12.583     c5.896,0,10.667-4.771,10.667-10.667c0-5.896-4.771-10.667-10.667-10.667c-11.969,0-17.521-3.865-24.542-8.75     c-8.042-5.604-18.063-12.583-36.729-12.583c-5.896,0-10.667,4.771-10.667,10.667S4.773,362.672,10.669,362.672z"
   id="path6"
   style="fill:#C9ADA7" />
			<path
   d="M293.753,353.682c-9.052-5.781-19.313-12.344-37.75-12.344c-18.687,0-28.719,6.969-36.781,12.573     c-7.031,4.896-12.594,8.76-24.583,8.76c-12,0-17.563-3.865-24.604-8.76c-8.052-5.604-18.083-12.573-36.771-12.573     c-5.896,0-10.667,4.771-10.667,10.667s4.771,10.667,10.667,10.667c12,0,17.563,3.865,24.594,8.76     c8.063,5.604,18.094,12.573,36.781,12.573c18.677,0,28.708-6.969,36.771-12.573c7.031-4.896,12.594-8.76,24.594-8.76     c12.198,0,18.406,3.969,26.25,8.99c9.052,5.781,19.313,12.344,37.75,12.344c5.896,0,10.667-4.771,10.667-10.667     c0-5.896-4.771-10.667-10.667-10.667C307.805,362.672,301.596,358.703,293.753,353.682z"
   id="path8"
   style="fill:#C9ADA7" />
			<path
   d="M10.669,298.672c11.969,0,17.521,3.865,24.542,8.75c8.042,5.604,18.063,12.583,36.729,12.583     c18.677,0,28.708-6.979,36.76-12.583c7.031-4.885,12.583-8.75,24.563-8.75c5.896,0,10.667-4.771,10.667-10.667     c0-5.896-4.771-10.667-10.667-10.667c-18.677,0-28.698,6.969-36.75,12.573c-7.031,4.896-12.583,8.76-24.573,8.76     c-11.969,0-17.521-3.865-24.542-8.75c-8.042-5.604-18.063-12.583-36.729-12.583c-5.896,0-10.667,4.771-10.667,10.667     C0.003,293.901,4.773,298.672,10.669,298.672z"
   id="path10"
   style="fill:#C9ADA7" />
			<path
   d="M378.596,298.672c5.896,0,10.667-4.771,10.667-10.667c0-5.896-4.771-10.667-10.667-10.667     c-18.677,0-28.698,6.969-36.75,12.573c-7.031,4.896-12.583,8.76-24.573,8.76c-11.969,0-17.521-3.865-24.542-8.75     c-8.042-5.604-18.063-12.583-36.729-12.583c-18.687,0-28.719,6.969-36.781,12.573c-7.031,4.896-12.594,8.76-24.583,8.76     c-5.896,0-10.667,4.771-10.667,10.667s4.771,10.667,10.667,10.667c18.677,0,28.708-6.969,36.771-12.573     c7.031-4.896,12.594-8.76,24.594-8.76c11.969,0,17.521,3.865,24.542,8.75c8.042,5.604,18.063,12.583,36.729,12.583     c18.677,0,28.708-6.979,36.76-12.583C361.065,302.536,366.617,298.672,378.596,298.672z"
   id="path12"
   style="fill:#C9ADA7" />
			<path
   d="M327.159,2.766c-4.063-3.688-10.25-3.688-14.313,0c-3.76,3.406-92.615,84.479-145.979,184.417     c-2.75,5.135-0.865,11.521,4.229,14.344c4.344,2.417,8.198,4.833,12.042,7.542c1.615,1.188,3.281,2.344,5.24,3.25     c1.49,0.698,3.042,0.906,4.781,0.99l3.833-0.104c1.5-0.042,2.979-0.406,4.344-1.063c1.573-0.76,3.125-1.823,5.719-3.74     c9.385-6.531,23.573-16.396,48.948-16.396c17.646,0,32,14.354,32,32c0,9.385-4.146,16.292-7.625,20.427     c-2.208,2.635-3.021,6.177-2.167,9.51c0.854,3.333,3.26,6.042,6.469,7.292c8.365,3.26,14.677,7.302,21.125,11.823     c1.615,1.188,3.292,2.344,5.25,3.26c1.5,0.698,3.115,1.021,4.833,1l3.76-0.115c1.51-0.052,2.979-0.417,4.333-1.073     c1.563-0.76,3.094-1.813,5.688-3.729c9.385-6.531,23.552-16.396,48.927-16.396c17.646,0,32,14.354,32,32     c0,17.646-14.354,32-32,32c-0.833,0-1.667,0.094-2.49,0.292c-5.083,1.219-7.844,3.177-9.896,4.635     c-4.677,3.26-10.49,7.302-18.344,10.583c-3.167,1.323-5.5,4.094-6.271,7.438c-0.781,3.333,0.094,6.854,2.354,9.427     c3.677,4.198,8.052,11.24,8.052,20.958c0,17.646-14.354,32-32,32c-6.323,0-12.417-0.74-19.167-2.313     c-3.271-0.792-6.615,1.042-9.177,3.208c-2.573,2.167-3.854,6.406-3.656,9.771c0,17.646-14.354,32-32,32     c-0.833,0-1.667,0.094-2.49,0.292c-4.729,1.135-7.406,2.854-9.927,4.646c-5.198,3.604-12.385,8.198-21.885,11.635     c-3.854,1.396-6.563,4.875-6.979,8.948c-0.417,4.083,1.542,8.031,5.031,10.177c30.177,18.51,64.833,28.302,100.25,28.302     c105.865,0,192-86.135,192-192C512.003,171.641,334.701,9.589,327.159,2.766z"
   id="path14"
   style="fill:#C9ADA7" />
		</g>
	</g>
</g>
<g
   id="g22">
</g>
<g
   id="g24">
</g>
<g
   id="g26">
</g>
<g
   id="g28">
</g>
<g
   id="g30">
</g>
<g
   id="g32">
</g>
<g
   id="g34">
</g>
<g
   id="g36">
</g>
<g
   id="g38">
</g>
<g
   id="g40">
</g>
<g
   id="g42">
</g>
<g
   id="g44">
</g>
<g
   id="g46">
</g>
<g
   id="g48">
</g>
<g
   id="g50">
</g>
</svg>