<?xml version="1.0" encoding="UTF-8" standalone="no"?>
<!-- Generator: Adobe Illustrator 19.0.0, SVG Export Plug-In . SVG Version: 6.00 Build 0)  -->

<svg
   xmlns:dc="http://purl.org/dc/elements/1.1/"
   xmlns:cc="http://creativecommons.org/ns#"
   xmlns:rdf="http://www.w3.org/1999/02/22-rdf-syntax-ns#"
   xmlns:svg="http://www.w3.org/2000/svg"
   xmlns="http://www.w3.org/2000/svg"
   xmlns:sodipodi="http://sodipodi.sourceforge.net/DTD/sodipodi-0.dtd"
   xmlns:inkscape="http://www.inkscape.org/namespaces/inkscape"
   version="1.1"
   id="Capa_1"
   x="0px"
   y="0px"
   viewBox="0 0 511.998 511.998"
   style="enable-background:new 0 0 511.998 511.998;"
   xml:space="preserve"
   sodipodi:docname="ozone.svg"
   inkscape:version="0.92.3 (2405546, 2018-03-11)"><metadata
   id="metadata115"><rdf:RDF><cc:Work
       rdf:about=""><dc:format>image/svg+xml</dc:format><dc:type
         rdf:resource="http://purl.org/dc/dcmitype/StillImage" /></cc:Work></rdf:RDF></metadata><defs
   id="defs113" /><sodipodi:namedview
   pagecolor="#ffffff"
   bordercolor="#666666"
   borderopacity="1"
   objecttolerance="10"
   gridtolerance="10"
   guidetolerance="10"
   inkscape:pageopacity="0"
   inkscape:pageshadow="2"
   inkscape:window-width="732"
   inkscape:window-height="480"
   id="namedview111"
   showgrid="false"
   inkscape:zoom="0.46093931"
   inkscape:cx="255.99899"
   inkscape:cy="255.99899"
   inkscape:window-x="0"
   inkscape:window-y="0"
   inkscape:window-maximized="0"
   inkscape:current-layer="Capa_1" />
<g
   id="g60"
   style="fill:#F2E9E4">
	<g
   id="g58"
   style="fill:#F2E9E4">
		<g
   id="g56"
   style="fill:#F2E9E4">
			<path
   d="M30,256.448l-30,0.029c0.01,9.912,0.594,19.902,1.736,29.692l29.798-3.475C30.524,274.043,30.009,265.213,30,256.448z"
   id="path2"
   style="fill:#F2E9E4" />
			<path
   d="M35.981,204.317l-29.205-6.859c-2.259,9.617-3.976,19.484-5.103,29.326l29.806,3.412     C32.473,221.51,33.987,212.803,35.981,204.317z"
   id="path4"
   style="fill:#F2E9E4" />
			<path
   d="M82.693,111.144L59.699,91.875c-6.357,7.586-12.334,15.62-17.764,23.88l25.068,16.48     C71.799,124.939,77.078,117.843,82.693,111.144z"
   id="path6"
   style="fill:#F2E9E4" />
			<path
   d="M511.997,255.65l-30,0.086l0.001,0.47c0,8.769-0.507,17.6-1.506,26.248l29.802,3.444     c1.131-9.787,1.705-19.777,1.704-29.735L511.997,255.65z"
   id="path8"
   style="fill:#F2E9E4" />
			<path
   d="M54.074,357.821l-26.787,13.508c4.449,8.821,9.469,17.481,14.921,25.741l25.037-16.527     C62.431,373.251,58,365.606,54.074,357.821z"
   id="path10"
   style="fill:#F2E9E4" />
			<path
   d="M36.09,308.561L6.9,315.484c2.284,9.631,5.163,19.227,8.556,28.521l28.18-10.29     C40.644,325.518,38.105,317.055,36.09,308.561z"
   id="path12"
   style="fill:#F2E9E4" />
			<path
   d="M468.278,178.468l28.169-10.317c-3.4-9.285-7.39-18.474-11.859-27.312l-26.772,13.537     C461.759,162.174,465.279,170.279,468.278,178.468z"
   id="path14"
   style="fill:#F2E9E4" />
			<path
   d="M444.621,131.668l25.02-16.554c-5.452-8.24-11.45-16.255-17.828-23.82l-22.938,19.336     C434.509,117.313,439.807,124.391,444.621,131.668z"
   id="path16"
   style="fill:#F2E9E4" />
			<path
   d="M82.967,401.597L60.01,420.91c6.366,7.566,13.242,14.841,20.437,21.623l20.576-21.832     C94.665,414.709,88.59,408.282,82.967,401.597z"
   id="path18"
   style="fill:#F2E9E4" />
			<path
   d="M480.436,229.479l29.794-3.507c-1.158-9.84-2.906-19.701-5.196-29.311l-29.183,6.954     C477.871,212.093,479.414,220.795,480.436,229.479z"
   id="path20"
   style="fill:#F2E9E4" />
			<path
   d="M120.817,75.073l-17.964-24.027c-7.916,5.919-15.572,12.367-22.758,19.164l20.617,21.793     C107.06,85.998,113.825,80.302,120.817,75.073z"
   id="path22"
   style="fill:#F2E9E4" />
			<path
   d="M166.173,48.757l-11.936-27.523c-9.067,3.932-18.003,8.444-26.561,13.41l15.059,25.947     C150.287,56.208,158.173,52.226,166.173,48.757z"
   id="path24"
   style="fill:#F2E9E4" />
			<path
   d="M216.389,33.663l-5.22-29.542c-9.75,1.723-19.496,4.039-28.967,6.886l8.636,28.73     C199.191,37.227,207.788,35.183,216.389,33.663z"
   id="path26"
   style="fill:#F2E9E4" />
			<path
   d="M53.868,154.998l-26.814-13.453c-4.442,8.854-8.405,18.059-11.778,27.358l28.202,10.23     C46.453,170.93,49.949,162.81,53.868,154.998z"
   id="path28"
   style="fill:#F2E9E4" />
			<path
   d="M408.534,50.591l-17.892,24.081c7.011,5.209,13.794,10.886,20.159,16.873l20.554-21.853     C424.149,62.915,416.471,56.488,408.534,50.591z"
   id="path30"
   style="fill:#F2E9E4" />
			<path
   d="M369.056,451.94l15.03,25.963c8.551-4.949,16.908-10.46,24.84-16.376l-17.938-24.047     C383.984,442.705,376.605,447.57,369.056,451.94z"
   id="path32"
   style="fill:#F2E9E4" />
			<path
   d="M357.023,20.915l-11.849,27.561c8.017,3.447,15.922,7.407,23.496,11.772l14.979-25.994     C375.067,29.309,366.109,24.821,357.023,20.915z"
   id="path34"
   style="fill:#F2E9E4" />
			<path
   d="M411.111,420.573l20.594,21.815c7.192-6.79,14.062-14.072,20.421-21.642l-22.974-19.293     C423.535,408.142,417.465,414.575,411.111,420.573z"
   id="path36"
   style="fill:#F2E9E4" />
			<path
   d="M444.863,380.377l25.051,16.507c5.447-8.268,10.463-16.94,14.908-25.775l-26.8-13.482     C454.099,365.425,449.672,373.079,444.863,380.377z"
   id="path38"
   style="fill:#F2E9E4" />
			<path
   d="M468.438,333.504l28.191,10.26c3.386-9.304,6.256-18.908,8.531-28.545l-29.198-6.892     C473.956,316.827,471.424,325.298,468.438,333.504z"
   id="path40"
   style="fill:#F2E9E4" />
			<path
   d="M320.93,472.744l8.605,28.739c9.476-2.838,18.889-6.268,27.976-10.197l-11.905-27.536     C337.591,467.215,329.288,470.241,320.93,472.744z"
   id="path42"
   style="fill:#F2E9E4" />
			<path
   d="M103.246,461.656c7.941,5.913,16.308,11.419,24.868,16.364l15.007-25.977c-7.558-4.366-14.945-9.227-21.957-14.449     L103.246,461.656z"
   id="path44"
   style="fill:#F2E9E4" />
			<path
   d="M154.725,491.39c9.097,3.921,18.517,7.344,28.001,10.172l8.573-28.749c-8.364-2.494-16.673-5.512-24.696-8.972     L154.725,491.39z"
   id="path46"
   style="fill:#F2E9E4" />
			<path
   d="M240.724,0.654l1.763,29.948c8.692-0.511,17.588-0.525,26.304-0.041l1.667-29.954     C260.607,0.06,250.551,0.076,240.724,0.654z"
   id="path48"
   style="fill:#F2E9E4" />
			<path
   d="M211.706,508.386c9.721,1.696,19.666,2.841,29.561,3.403l1.7-29.953c-8.74-0.496-17.523-1.506-26.105-3.004     L211.706,508.386z"
   id="path50"
   style="fill:#F2E9E4" />
			<path
   d="M269.271,481.823l1.733,29.95c9.897-0.572,19.841-1.728,29.559-3.435l-5.19-29.548     C286.795,480.297,278.013,481.317,269.271,481.823z"
   id="path52"
   style="fill:#F2E9E4" />
			<path
   d="M300.024,3.979l-5.126,29.559c8.607,1.493,17.211,3.509,25.571,5.992l8.542-28.759     C319.532,7.956,309.78,5.671,300.024,3.979z"
   id="path54"
   style="fill:#F2E9E4" />
		</g>
	</g>
</g>
<g
   id="g66"
   style="fill:#F2E9E4">
	<g
   id="g64"
   style="fill:#F2E9E4">
		<path
   d="M262.563,410.093c-13.471-11.165-31.787-18.829-44.436-22.279c-11.58-3.158-19.922-11.666-23.493-23.955    c-5.645-19.431,2.045-46.465,18.285-64.283c5.257-5.768,6.105-14.512,2.52-25.991c-1.539-4.926-5.081-9.005-9.719-11.189    c-7.991-3.764-12.495-4.014-13.864-3.764c-0.328,0.597-0.908,2.141-1.201,4.97c-3.548,34.363-28.088,56.572-67.327,60.932    c-14.618,1.618-26.895-9.204-36.495-32.185c-2.489-5.958-4.49-11.927-5.945-16.722l-25.235-3.34    c8.22,103.336,94.933,184.909,200.346,184.909c8.885,0,17.634-0.586,26.217-1.71C284.655,437.942,278.194,423.047,262.563,410.093    z"
   id="path62"
   style="fill:#F2E9E4" />
	</g>
</g>
<g
   id="g72"
   style="fill:#F2E9E4">
	<g
   id="g70"
   style="fill:#F2E9E4">
		<path
   d="M339.369,73.34c-6.2,10.151-13.754,26.622-10.194,39.084c6.813,23.844-9.001,38.105-19.465,47.543    c-7.784,7.02-12.565,11.702-13.335,17.519c-0.959,7.247,2.683,16.727,10.254,26.691c2.1,2.764,4.821,2.584,6.257,2.232    c1.398-0.344,3.827-1.416,4.389-4.736l0.074-0.463c2.2-14.502,10.953-19.725,15.975-21.55    c17.156-6.238,37.477,9.381,45.416,16.386l1.944,1.715l1.255,2.268c0.084,0.151,9.986,17.711,25.767,31.44    c16.883,14.689,32.942,18.947,48.928,12.922C452.203,168.348,405.31,103.522,339.369,73.34z"
   id="path68"
   style="fill:#F2E9E4" />
	</g>
</g>
<g
   id="g78"
   style="fill:#F2E9E4">
	<g
   id="g76"
   style="fill:#F2E9E4">
		<path
   d="M442.784,276.985c-18.828,0.001-37.781-7.899-55.411-23.446c-15.773-13.909-26.429-30.228-30.191-36.437    c-3.574-2.895-7.741-5.629-10.997-7.288c-3.305,12.801-13.078,22.517-26.139,25.727c-14.17,3.482-28.465-1.581-37.305-13.215    c-12.57-16.544-18.14-33.411-16.107-48.776c2.274-17.183,13.757-27.539,22.984-35.861c10.532-9.498,12.133-12.044,10.711-17.023    c-6.126-21.44,2.605-43.655,10.452-57.861c-17.422-4.942-35.798-7.589-54.782-7.589c-106.053,0-193.173,82.567-200.483,186.793    l49.435,6.543l2.362,10.092c3.506,14.881,10.405,31.347,14.844,35.811c23.657-3.189,36.658-14.598,38.655-33.934    c1.712-16.583,9.713-24.376,16.123-27.994c10.796-6.093,24.781-5.175,41.565,2.73c12.215,5.752,21.535,16.463,25.572,29.384    c6.794,21.752,3.604,41.335-8.983,55.145c-9.988,10.958-14.086,27.309-11.647,35.705c0.845,2.909,1.887,3.193,2.577,3.381    c7.606,2.075,34.101,10.233,55.686,28.124c20.751,17.199,31.266,38.387,31.027,62.035    c77.289-22.779,135.35-90.856,143.312-173.371C451.644,276.538,447.217,276.985,442.784,276.985z"
   id="path74"
   style="fill:#F2E9E4" />
	</g>
</g>
<g
   id="g80"
   style="fill:#F2E9E4">
</g>
<g
   id="g82"
   style="fill:#F2E9E4">
</g>
<g
   id="g84"
   style="fill:#F2E9E4">
</g>
<g
   id="g86"
   style="fill:#F2E9E4">
</g>
<g
   id="g88"
   style="fill:#F2E9E4">
</g>
<g
   id="g90"
   style="fill:#F2E9E4">
</g>
<g
   id="g92"
   style="fill:#F2E9E4">
</g>
<g
   id="g94"
   style="fill:#F2E9E4">
</g>
<g
   id="g96"
   style="fill:#F2E9E4">
</g>
<g
   id="g98"
   style="fill:#F2E9E4">
</g>
<g
   id="g100"
   style="fill:#F2E9E4">
</g>
<g
   id="g102"
   style="fill:#F2E9E4">
</g>
<g
   id="g104"
   style="fill:#F2E9E4">
</g>
<g
   id="g106"
   style="fill:#F2E9E4">
</g>
<g
   id="g108"
   style="fill:#F2E9E4">
</g>
</svg>