<?xml version="1.0" encoding="UTF-8" standalone="no"?>
<!-- Generator: Adobe Illustrator 19.0.0, SVG Export Plug-In . SVG Version: 6.00 Build 0)  -->

<svg
   xmlns:dc="http://purl.org/dc/elements/1.1/"
   xmlns:cc="http://creativecommons.org/ns#"
   xmlns:rdf="http://www.w3.org/1999/02/22-rdf-syntax-ns#"
   xmlns:svg="http://www.w3.org/2000/svg"
   xmlns="http://www.w3.org/2000/svg"
   xmlns:sodipodi="http://sodipodi.sourceforge.net/DTD/sodipodi-0.dtd"
   xmlns:inkscape="http://www.inkscape.org/namespaces/inkscape"
   version="1.1"
   id="Capa_1"
   x="0px"
   y="0px"
   viewBox="0 0 384 384"
   style="enable-background:new 0 0 384 384;"
   xml:space="preserve"
   sodipodi:docname="partly-cloudy.svg"
   inkscape:version="0.92.3 (2405546, 2018-03-11)"><metadata
   id="metadata61"><rdf:RDF><cc:Work
       rdf:about=""><dc:format>image/svg+xml</dc:format><dc:type
         rdf:resource="http://purl.org/dc/dcmitype/StillImage" /></cc:Work></rdf:RDF></metadata><defs
   id="defs59" /><sodipodi:namedview
   pagecolor="#ffffff"
   bordercolor="#666666"
   borderopacity="1"
   objecttolerance="10"
   gridtolerance="10"
   guidetolerance="10"
   inkscape:pageopacity="0"
   inkscape:pageshadow="2"
   inkscape:window-width="732"
   inkscape:window-height="480"
   id="namedview57"
   showgrid="false"
   inkscape:zoom="0.61458333"
   inkscape:cx="192"
   inkscape:cy="192"
   inkscape:window-x="0"
   inkscape:window-y="0"
   inkscape:window-maximized="0"
   inkscape:current-layer="Capa_1" />
<g
   id="g6"
   style="fill:#F2E9E4">
	<g
   id="g4"
   style="fill:#F2E9E4">
		<path
   d="M381.856,115.992c-4.432-7.656-14.192-10.288-21.856-5.856l-6.928,4c-7.648,4.424-10.272,14.208-5.864,21.864    c2.968,5.136,8.344,8,13.88,8c2.712,0,5.464-0.688,7.984-2.152l6.928-4C383.648,133.432,386.272,123.648,381.856,115.992z"
   id="path2"
   style="fill:#F2E9E4" />
	</g>
</g>
<g
   id="g12"
   style="fill:#F2E9E4">
	<g
   id="g10"
   style="fill:#F2E9E4">
		<path
   d="M312,55.584c-7.64-4.432-17.44-1.8-21.848,5.848l-4,6.928c-4.424,7.648-1.808,17.44,5.848,21.856    c2.512,1.456,5.264,2.152,7.984,2.152c5.528,0,10.904-2.872,13.864-8l4-6.928C322.272,69.784,319.656,60,312,55.584z"
   id="path8"
   style="fill:#F2E9E4" />
	</g>
</g>
<g
   id="g18"
   style="fill:#F2E9E4">
	<g
   id="g16"
   style="fill:#F2E9E4">
		<path
   d="M224,32c-8.832,0-16,7.168-16,16v8c0,8.832,7.168,16,16,16c8.832,0,16-7.168,16-16v-8C240,39.168,232.832,32,224,32z"
   id="path14"
   style="fill:#F2E9E4" />
	</g>
</g>
<g
   id="g24"
   style="fill:#F2E9E4">
	<g
   id="g22"
   style="fill:#F2E9E4">
		<path
   d="M328,200c0-57.344-46.656-104-104-104c-28.856,0-55.76,11.752-75.304,32.408c-2.744-0.248-5.512-0.408-8.296-0.408    c-48.432,0-87.84,37.608-88,83.888C22.016,221.12,0,248.664,0,280.24C0,319.808,33.592,352,74.88,352H232    c48.52,0,88-37.752,88-84.16c0-7.216-0.984-14.384-2.92-21.384C324.232,232.096,328,216.184,328,200z M232,320H74.88    C51.232,320,32,302.168,32,280.24c0-20.344,17.096-37.688,38.92-39.496c4.576-0.376,8.776-2.704,11.512-6.392    c2.736-3.688,3.776-8.376,2.816-12.872c-0.576-2.752-0.848-5.712-0.848-9.32c0-28.76,25.128-52.16,56-52.16    c3.896,0,7.72,0.376,11.536,1.152c23.04,4.432,40.688,22.016,43.912,43.76c0.68,4.56,3.288,8.608,7.168,11.104    c3.88,2.496,8.656,3.192,13.08,1.92c5.024-1.44,10.376-2.176,15.896-2.176c2.968,0,5.896,0.216,8.76,0.64    c14.336,2.112,27.16,9.336,35.808,19.92c0.104,0.136,0.184,0.288,0.288,0.424c1.6,2,3.088,4.096,4.376,6.32    c1.376,2.368,2.56,4.864,3.544,7.464c0,0.008,0.008,0.008,0.008,0.016C286.92,256.176,288,262,288,267.84    C288,296.6,262.872,320,232,320z M295.376,209.536c-0.304-0.304-0.656-0.568-0.96-0.864c-1.408-1.352-2.856-2.648-4.352-3.896    c-0.52-0.44-1.032-0.896-1.56-1.32c-2.016-1.616-4.096-3.152-6.256-4.584c-0.368-0.248-0.76-0.464-1.136-0.704    c-1.824-1.176-3.688-2.28-5.592-3.32c-0.72-0.392-1.448-0.76-2.176-1.136c-1.72-0.872-3.464-1.696-5.24-2.456    c-0.688-0.296-1.368-0.608-2.064-0.888c-2.432-0.976-4.912-1.88-7.44-2.648c-0.264-0.08-0.544-0.136-0.808-0.216    c-2.28-0.672-4.592-1.24-6.936-1.736c-0.8-0.168-1.608-0.312-2.424-0.456c-1.928-0.352-3.872-0.64-5.832-0.872    c-0.808-0.096-1.608-0.2-2.416-0.272c-2.712-0.248-5.432-0.408-8.184-0.408c-2.888,0-5.76,0.136-8.6,0.4    c-1.128-3.064-2.496-6.008-3.976-8.904c-0.384-0.76-0.792-1.504-1.2-2.256c-1.376-2.496-2.856-4.928-4.48-7.272    c-0.24-0.352-0.456-0.72-0.704-1.072c-1.84-2.576-3.864-5.016-5.984-7.376c-0.616-0.688-1.264-1.344-1.904-2.008    c-1.752-1.824-3.576-3.568-5.488-5.232c-0.6-0.528-1.168-1.08-1.784-1.584c-2.384-1.968-4.888-3.8-7.488-5.512    c-0.848-0.56-1.72-1.072-2.592-1.6c-0.984-0.608-1.936-1.256-2.952-1.824C196.328,132.056,209.832,128,224,128    c39.704,0,72,32.304,72,72C296,203.2,295.792,206.384,295.376,209.536z"
   id="path20"
   style="fill:#F2E9E4" />
	</g>
</g>
<g
   id="g26"
   style="fill:#F2E9E4">
</g>
<g
   id="g28"
   style="fill:#F2E9E4">
</g>
<g
   id="g30"
   style="fill:#F2E9E4">
</g>
<g
   id="g32"
   style="fill:#F2E9E4">
</g>
<g
   id="g34"
   style="fill:#F2E9E4">
</g>
<g
   id="g36"
   style="fill:#F2E9E4">
</g>
<g
   id="g38"
   style="fill:#F2E9E4">
</g>
<g
   id="g40"
   style="fill:#F2E9E4">
</g>
<g
   id="g42"
   style="fill:#F2E9E4">
</g>
<g
   id="g44"
   style="fill:#F2E9E4">
</g>
<g
   id="g46"
   style="fill:#F2E9E4">
</g>
<g
   id="g48"
   style="fill:#F2E9E4">
</g>
<g
   id="g50"
   style="fill:#F2E9E4">
</g>
<g
   id="g52"
   style="fill:#F2E9E4">
</g>
<g
   id="g54"
   style="fill:#F2E9E4">
</g>
</svg>