<?xml version="1.0" encoding="UTF-8" standalone="no"?>
<!-- Generator: Adobe Illustrator 19.0.0, SVG Export Plug-In . SVG Version: 6.00 Build 0)  -->

<svg
   xmlns:dc="http://purl.org/dc/elements/1.1/"
   xmlns:cc="http://creativecommons.org/ns#"
   xmlns:rdf="http://www.w3.org/1999/02/22-rdf-syntax-ns#"
   xmlns:svg="http://www.w3.org/2000/svg"
   xmlns="http://www.w3.org/2000/svg"
   xmlns:sodipodi="http://sodipodi.sourceforge.net/DTD/sodipodi-0.dtd"
   xmlns:inkscape="http://www.inkscape.org/namespaces/inkscape"
   version="1.1"
   id="Capa_1"
   x="0px"
   y="0px"
   viewBox="0 0 384 384"
   style="enable-background:new 0 0 384 384;"
   xml:space="preserve"
   sodipodi:docname="rain.svg"
   inkscape:version="0.92.3 (2405546, 2018-03-11)"><metadata
   id="metadata55"><rdf:RDF><cc:Work
       rdf:about=""><dc:format>image/svg+xml</dc:format><dc:type
         rdf:resource="http://purl.org/dc/dcmitype/StillImage" /></cc:Work></rdf:RDF></metadata><defs
   id="defs53" /><sodipodi:namedview
   pagecolor="#ffffff"
   bordercolor="#666666"
   borderopacity="1"
   objecttolerance="10"
   gridtolerance="10"
   guidetolerance="10"
   inkscape:pageopacity="0"
   inkscape:pageshadow="2"
   inkscape:window-width="732"
   inkscape:window-height="480"
   id="namedview51"
   showgrid="false"
   inkscape:zoom="0.61458333"
   inkscape:cx="192"
   inkscape:cy="192"
   inkscape:window-x="0"
   inkscape:window-y="0"
   inkscape:window-maximized="0"
   inkscape:current-layer="Capa_1" />
<g
   id="g6"
   style="fill:#F2E9E4">
	<g
   id="g4"
   style="fill:#F2E9E4">
		<path
   d="M272,320c-8.832,0-16,7.168-16,16v32c0,8.832,7.168,16,16,16c8.832,0,16-7.168,16-16v-32C288,327.168,280.832,320,272,320    z"
   id="path2"
   style="fill:#F2E9E4" />
	</g>
</g>
<g
   id="g12"
   style="fill:#F2E9E4">
	<g
   id="g10"
   style="fill:#F2E9E4">
		<path
   d="M160,320c-8.832,0-16,7.168-16,16v32c0,8.832,7.168,16,16,16c8.832,0,16-7.168,16-16v-32C176,327.168,168.832,320,160,320    z"
   id="path8"
   style="fill:#F2E9E4" />
	</g>
</g>
<g
   id="g18"
   style="fill:#F2E9E4">
	<g
   id="g16"
   style="fill:#F2E9E4">
		<path
   d="M280,69.672c-4.32,0-8.632,0.264-12.896,0.784C253.592,29.328,213.64,0,168,0C110.656,0,64,45.376,64,101.16    c0,0.904,0.008,1.8,0.032,2.696C26.592,113.992,0,147.064,0,186.328C0,233.568,39.48,272,88,272v24c0,8.832,7.168,16,16,16    c8.832,0,16-7.168,16-16v-24h80v24c0,8.832,7.168,16,16,16c8.832,0,16-7.168,16-16v-24h48c57.344,0,104-45.376,104-101.16    S337.344,69.672,280,69.672z M280,240H88c-30.872,0-56-24.08-56-53.672c0-27.952,21.88-50.928,50.896-53.432    c4.552-0.392,8.72-2.712,11.448-6.368c2.736-3.656,3.776-8.312,2.848-12.784c-0.8-3.936-1.192-8.056-1.192-12.584    C96,63.024,128.296,32,168,32c35.72,0,66.368,25.56,71.28,59.456c0.664,4.568,3.272,8.632,7.152,11.144    c3.88,2.512,8.656,3.208,13.096,1.944c6.64-1.904,13.528-2.864,20.48-2.864c39.704,0,72,31.024,72,69.168    C352.008,208.992,319.704,240,280,240z"
   id="path14"
   style="fill:#F2E9E4" />
	</g>
</g>
<g
   id="g20"
   style="fill:#F2E9E4">
</g>
<g
   id="g22"
   style="fill:#F2E9E4">
</g>
<g
   id="g24"
   style="fill:#F2E9E4">
</g>
<g
   id="g26"
   style="fill:#F2E9E4">
</g>
<g
   id="g28"
   style="fill:#F2E9E4">
</g>
<g
   id="g30"
   style="fill:#F2E9E4">
</g>
<g
   id="g32"
   style="fill:#F2E9E4">
</g>
<g
   id="g34"
   style="fill:#F2E9E4">
</g>
<g
   id="g36"
   style="fill:#F2E9E4">
</g>
<g
   id="g38"
   style="fill:#F2E9E4">
</g>
<g
   id="g40"
   style="fill:#F2E9E4">
</g>
<g
   id="g42"
   style="fill:#F2E9E4">
</g>
<g
   id="g44"
   style="fill:#F2E9E4">
</g>
<g
   id="g46"
   style="fill:#F2E9E4">
</g>
<g
   id="g48"
   style="fill:#F2E9E4">
</g>
</svg>