<?xml version="1.0" encoding="UTF-8" standalone="no"?>
<svg
   xmlns:dc="http://purl.org/dc/elements/1.1/"
   xmlns:cc="http://creativecommons.org/ns#"
   xmlns:rdf="http://www.w3.org/1999/02/22-rdf-syntax-ns#"
   xmlns:svg="http://www.w3.org/2000/svg"
   xmlns="http://www.w3.org/2000/svg"
   xmlns:sodipodi="http://sodipodi.sourceforge.net/DTD/sodipodi-0.dtd"
   xmlns:inkscape="http://www.inkscape.org/namespaces/inkscape"
   viewBox="0 0 32 32"
   version="1.1"
   width="64px"
   height="64px"
   id="svg5"
   sodipodi:docname="icons8-sun (1).svg"
   inkscape:version="0.92.3 (2405546, 2018-03-11)">
  <metadata
     id="metadata11">
    <rdf:RDF>
      <cc:Work
         rdf:about="">
        <dc:format>image/svg+xml</dc:format>
        <dc:type
           rdf:resource="http://purl.org/dc/dcmitype/StillImage" />
      </cc:Work>
    </rdf:RDF>
  </metadata>
  <defs
     id="defs9" />
  <sodipodi:namedview
     pagecolor="#ffffff"
     bordercolor="#666666"
     borderopacity="1"
     objecttolerance="10"
     gridtolerance="10"
     guidetolerance="10"
     inkscape:pageopacity="0"
     inkscape:pageshadow="2"
     inkscape:window-width="732"
     inkscape:window-height="480"
     id="namedview7"
     showgrid="false"
     inkscape:zoom="3.6875"
     inkscape:cx="32"
     inkscape:cy="32"
     inkscape:window-x="0"
     inkscape:window-y="0"
     inkscape:window-maximized="0"
     inkscape:current-layer="svg5" />
  <g
     id="surface1"
     style="fill:#000000">
    <path
       style="fill:#000000"
       d="M 15 3 L 15 8 L 17 8 L 17 3 Z M 7.5 6.09375 L 6.09375 7.5 L 9.625 11.0625 L 11.0625 9.625 Z M 24.5 6.09375 L 20.9375 9.625 L 22.375 11.0625 L 25.90625 7.5 Z M 16 9 C 12.144531 9 9 12.144531 9 16 C 9 19.855469 12.144531 23 16 23 C 19.855469 23 23 19.855469 23 16 C 23 12.144531 19.855469 9 16 9 Z M 16 11 C 18.773438 11 21 13.226563 21 16 C 21 18.773438 18.773438 21 16 21 C 13.226563 21 11 18.773438 11 16 C 11 13.226563 13.226563 11 16 11 Z M 3 15 L 3 17 L 8 17 L 8 15 Z M 24 15 L 24 17 L 29 17 L 29 15 Z M 9.625 20.9375 L 6.09375 24.5 L 7.5 25.90625 L 11.0625 22.375 Z M 22.375 20.9375 L 20.9375 22.375 L 24.5 25.90625 L 25.90625 24.5 Z M 15 24 L 15 29 L 17 29 L 17 24 Z "
       id="path2" />
  </g>
</svg>
