<?xml version="1.0" encoding="UTF-8" standalone="no"?>
<!-- Generator: Adobe Illustrator 19.0.0, SVG Export Plug-In . SVG Version: 6.00 Build 0)  -->

<svg
   xmlns:dc="http://purl.org/dc/elements/1.1/"
   xmlns:cc="http://creativecommons.org/ns#"
   xmlns:rdf="http://www.w3.org/1999/02/22-rdf-syntax-ns#"
   xmlns:svg="http://www.w3.org/2000/svg"
   xmlns="http://www.w3.org/2000/svg"
   xmlns:sodipodi="http://sodipodi.sourceforge.net/DTD/sodipodi-0.dtd"
   xmlns:inkscape="http://www.inkscape.org/namespaces/inkscape"
   version="1.1"
   id="Capa_1"
   x="0px"
   y="0px"
   viewBox="0 0 384 384"
   style="enable-background:new 0 0 384 384;"
   xml:space="preserve"
   sodipodi:docname="sun.svg"
   inkscape:version="0.92.3 (2405546, 2018-03-11)"><metadata
   id="metadata91"><rdf:RDF><cc:Work
       rdf:about=""><dc:format>image/svg+xml</dc:format><dc:type
         rdf:resource="http://purl.org/dc/dcmitype/StillImage" /></cc:Work></rdf:RDF></metadata><defs
   id="defs89" /><sodipodi:namedview
   pagecolor="#ffffff"
   bordercolor="#666666"
   borderopacity="1"
   objecttolerance="10"
   gridtolerance="10"
   guidetolerance="10"
   inkscape:pageopacity="0"
   inkscape:pageshadow="2"
   inkscape:window-width="732"
   inkscape:window-height="480"
   id="namedview87"
   showgrid="false"
   inkscape:zoom="0.61458333"
   inkscape:cx="192"
   inkscape:cy="192"
   inkscape:window-x="0"
   inkscape:window-y="0"
   inkscape:window-maximized="0"
   inkscape:current-layer="Capa_1" />
<g
   id="g6"
   style="fill:#F2E9E4">
	<g
   id="g4"
   style="fill:#F2E9E4">
		<path
   d="M101.488,78.864L78.864,56.24c-6.24-6.248-16.384-6.248-22.624,0c-6.248,6.248-6.248,16.376,0,22.624l22.624,22.624    c3.12,3.128,7.216,4.688,11.312,4.688c4.096,0,8.192-1.56,11.312-4.688C107.736,95.24,107.736,85.112,101.488,78.864z"
   id="path2"
   style="fill:#F2E9E4" />
	</g>
</g>
<g
   id="g12"
   style="fill:#F2E9E4">
	<g
   id="g10"
   style="fill:#F2E9E4">
		<path
   d="M48,176H16c-8.832,0-16,7.168-16,16c0,8.832,7.168,16,16,16h32c8.832,0,16-7.168,16-16C64,183.168,56.832,176,48,176z"
   id="path8"
   style="fill:#F2E9E4" />
	</g>
</g>
<g
   id="g18"
   style="fill:#F2E9E4">
	<g
   id="g16"
   style="fill:#F2E9E4">
		<path
   d="M101.488,282.512c-6.24-6.248-16.384-6.248-22.624,0L56.24,305.136c-6.248,6.248-6.248,16.376,0,22.624    c3.12,3.128,7.216,4.688,11.312,4.688s8.192-1.56,11.312-4.688l22.624-22.624C107.736,298.888,107.736,288.76,101.488,282.512z"
   id="path14"
   style="fill:#F2E9E4" />
	</g>
</g>
<g
   id="g24"
   style="fill:#F2E9E4">
	<g
   id="g22"
   style="fill:#F2E9E4">
		<path
   d="M192,320c-8.832,0-16,7.168-16,16v32c0,8.832,7.168,16,16,16c8.832,0,16-7.168,16-16v-32C208,327.168,200.832,320,192,320    z"
   id="path20"
   style="fill:#F2E9E4" />
	</g>
</g>
<g
   id="g30"
   style="fill:#F2E9E4">
	<g
   id="g28"
   style="fill:#F2E9E4">
		<path
   d="M327.76,305.136l-22.624-22.624c-6.24-6.248-16.384-6.248-22.624,0c-6.248,6.248-6.248,16.376,0,22.624l22.624,22.624    c3.12,3.128,7.216,4.688,11.312,4.688s8.192-1.56,11.312-4.688C334.008,321.512,334.008,311.384,327.76,305.136z"
   id="path26"
   style="fill:#F2E9E4" />
	</g>
</g>
<g
   id="g36"
   style="fill:#F2E9E4">
	<g
   id="g34"
   style="fill:#F2E9E4">
		<path
   d="M368,176h-32c-8.832,0-16,7.168-16,16c0,8.832,7.168,16,16,16h32c8.832,0,16-7.168,16-16C384,183.168,376.832,176,368,176    z"
   id="path32"
   style="fill:#F2E9E4" />
	</g>
</g>
<g
   id="g42"
   style="fill:#F2E9E4">
	<g
   id="g40"
   style="fill:#F2E9E4">
		<path
   d="M327.76,56.24c-6.24-6.248-16.384-6.248-22.624,0l-22.624,22.624c-6.248,6.248-6.248,16.376,0,22.624    c3.12,3.128,7.216,4.688,11.312,4.688s8.192-1.56,11.312-4.688l22.624-22.624C334.008,72.616,334.008,62.488,327.76,56.24z"
   id="path38"
   style="fill:#F2E9E4" />
	</g>
</g>
<g
   id="g48"
   style="fill:#F2E9E4">
	<g
   id="g46"
   style="fill:#F2E9E4">
		<path
   d="M192,0c-8.832,0-16,7.168-16,16v32c0,8.832,7.168,16,16,16c8.832,0,16-7.168,16-16V16C208,7.168,200.832,0,192,0z"
   id="path44"
   style="fill:#F2E9E4" />
	</g>
</g>
<g
   id="g54"
   style="fill:#F2E9E4">
	<g
   id="g52"
   style="fill:#F2E9E4">
		<path
   d="M192,88c-57.344,0-104,46.656-104,104s46.656,104,104,104s104-46.656,104-104S249.344,88,192,88z M192,264    c-39.696,0-72-32.304-72-72s32.304-72,72-72s72,32.304,72,72S231.696,264,192,264z"
   id="path50"
   style="fill:#F2E9E4" />
	</g>
</g>
<g
   id="g56"
   style="fill:#F2E9E4">
</g>
<g
   id="g58"
   style="fill:#F2E9E4">
</g>
<g
   id="g60"
   style="fill:#F2E9E4">
</g>
<g
   id="g62"
   style="fill:#F2E9E4">
</g>
<g
   id="g64"
   style="fill:#F2E9E4">
</g>
<g
   id="g66"
   style="fill:#F2E9E4">
</g>
<g
   id="g68"
   style="fill:#F2E9E4">
</g>
<g
   id="g70"
   style="fill:#F2E9E4">
</g>
<g
   id="g72"
   style="fill:#F2E9E4">
</g>
<g
   id="g74"
   style="fill:#F2E9E4">
</g>
<g
   id="g76"
   style="fill:#F2E9E4">
</g>
<g
   id="g78"
   style="fill:#F2E9E4">
</g>
<g
   id="g80"
   style="fill:#F2E9E4">
</g>
<g
   id="g82"
   style="fill:#F2E9E4">
</g>
<g
   id="g84"
   style="fill:#F2E9E4">
</g>
</svg>