<svg xmlns="http://www.w3.org/2000/svg" xmlns:svg="http://www.w3.org/2000/svg" id="Capa_1" x="0" y="0" version="1.1" viewBox="0 0 384 384" xml:space="preserve" style="enable-background:new 0 0 384 384"><metadata id="metadata73"/><g id="g6" style="fill:#f2e9e4"><g id="g4" style="fill:#f2e9e4"><path id="path2" d="M268,200h-24c-8.832,0-16,7.168-16,16c0,8.832,7.168,16,16,16h24c8.832,0,16-7.168,16-16C284,207.168,276.832,200,268,200 z" style="fill:#f2e9e4"/></g></g><g id="g12" style="fill:#f2e9e4"><g id="g10" style="fill:#f2e9e4"><path id="path8" d="M292,144h-48c-8.832,0-16,7.168-16,16c0,8.832,7.168,16,16,16h48c8.832,0,16-7.168,16-16C308,151.168,300.832,144,292,144 z" style="fill:#f2e9e4"/></g></g><g id="g18" style="fill:#f2e9e4"><g id="g16" style="fill:#f2e9e4"><path id="path14" d="M268,88h-24c-8.832,0-16,7.168-16,16c0,8.832,7.168,16,16,16h24c8.832,0,16-7.168,16-16C284,95.168,276.832,88,268,88z" style="fill:#f2e9e4"/></g></g><g id="g24" style="fill:#f2e9e4"><g id="g22" style="fill:#f2e9e4"><path id="path20" d="M292,32h-48c-8.832,0-16,7.168-16,16c0,8.832,7.168,16,16,16h48c8.832,0,16-7.168,16-16C308,39.168,300.832,32,292,32z" style="fill:#f2e9e4"/></g></g><g id="g30" style="fill:#f2e9e4"><g id="g28" style="fill:#f2e9e4"><path id="path26" d="M156,280c-13.232,0-24,10.768-24,24s10.768,24,24,24s24-10.768,24-24S169.232,280,156,280z" style="fill:#f2e9e4"/></g></g><g id="g36" style="fill:#f2e9e4"><g id="g34" style="fill:#f2e9e4"><path id="path32" d="M204,240.112V48c0-12.712-4.96-24.736-14.128-34.032C180.736,4.96,168.712,0,156,0c-26.472,0-48,21.528-48,48v192.112 C88.08,255.04,76,278.704,76,304c0,28.552,15.344,55.08,39.872,69.144C127.92,380.248,141.792,384,156,384 s28.08-3.752,39.96-10.76C220.656,359.08,236,332.552,236,304C236,278.704,223.92,255.04,204,240.112z M179.872,345.576 c-14.248,8.4-33.32,8.504-47.912-0.104C117.176,337.008,108,321.112,108,304s9.176-33.008,23.96-41.48 c0.168-0.096,0.296-0.232,0.456-0.328c0.48-0.296,0.92-0.632,1.36-0.976c0.408-0.312,0.808-0.624,1.176-0.968 c0.36-0.344,0.688-0.72,1.016-1.096c0.36-0.408,0.712-0.808,1.024-1.24c0.288-0.4,0.528-0.824,0.776-1.256 c0.264-0.456,0.536-0.912,0.752-1.392c0.208-0.456,0.368-0.936,0.536-1.416c0.176-0.504,0.344-1,0.472-1.52 c0.112-0.464,0.176-0.944,0.24-1.416c0.088-0.584,0.152-1.16,0.176-1.744c0.008-0.176,0.056-0.344,0.056-0.528V48 c0-8.824,7.176-16,16-16c4.248,0,8.296,1.688,11.248,4.592C170.312,39.704,172,43.752,172,48v200.64 c0,0.184,0.048,0.352,0.056,0.536c0.024,0.592,0.088,1.168,0.176,1.744c0.072,0.48,0.136,0.952,0.24,1.416 c0.12,0.52,0.296,1.016,0.472,1.52c0.168,0.48,0.328,0.96,0.536,1.416c0.216,0.48,0.488,0.928,0.752,1.392 c0.248,0.424,0.488,0.856,0.776,1.256c0.312,0.44,0.672,0.84,1.024,1.24c0.328,0.376,0.656,0.752,1.016,1.096 c0.368,0.344,0.768,0.656,1.176,0.968c0.44,0.344,0.888,0.68,1.36,0.976c0.16,0.104,0.288,0.232,0.456,0.328 C194.824,270.992,204,286.888,204,304S194.824,337.008,179.872,345.576z" style="fill:#f2e9e4"/></g></g></svg>