<?xml version="1.0" encoding="UTF-8" standalone="no"?>
<!-- Generator: Adobe Illustrator 19.0.0, SVG Export Plug-In . SVG Version: 6.00 Build 0)  -->

<svg
   xmlns:dc="http://purl.org/dc/elements/1.1/"
   xmlns:cc="http://creativecommons.org/ns#"
   xmlns:rdf="http://www.w3.org/1999/02/22-rdf-syntax-ns#"
   xmlns:svg="http://www.w3.org/2000/svg"
   xmlns="http://www.w3.org/2000/svg"
   xmlns:sodipodi="http://sodipodi.sourceforge.net/DTD/sodipodi-0.dtd"
   xmlns:inkscape="http://www.inkscape.org/namespaces/inkscape"
   version="1.1"
   id="Capa_1"
   x="0px"
   y="0px"
   viewBox="0 0 384 384"
   style="enable-background:new 0 0 384 384;"
   xml:space="preserve"
   sodipodi:docname="windy.svg"
   inkscape:version="0.92.3 (2405546, 2018-03-11)"><metadata
   id="metadata55"><rdf:RDF><cc:Work
       rdf:about=""><dc:format>image/svg+xml</dc:format><dc:type
         rdf:resource="http://purl.org/dc/dcmitype/StillImage" /></cc:Work></rdf:RDF></metadata><defs
   id="defs53" /><sodipodi:namedview
   pagecolor="#ffffff"
   bordercolor="#666666"
   borderopacity="1"
   objecttolerance="10"
   gridtolerance="10"
   guidetolerance="10"
   inkscape:pageopacity="0"
   inkscape:pageshadow="2"
   inkscape:window-width="732"
   inkscape:window-height="480"
   id="namedview51"
   showgrid="false"
   inkscape:zoom="0.61458333"
   inkscape:cx="192"
   inkscape:cy="192"
   inkscape:window-x="0"
   inkscape:window-y="0"
   inkscape:window-maximized="0"
   inkscape:current-layer="Capa_1" />
<g
   id="g6"
   style="fill:#F2E9E4">
	<g
   id="g4"
   style="fill:#F2E9E4">
		<path
   d="M56,208H16c-8.832,0-16,7.168-16,16c0,8.832,7.168,16,16,16h40c8.832,0,16-7.168,16-16C72,215.168,64.832,208,56,208z"
   id="path2"
   style="fill:#F2E9E4" />
	</g>
</g>
<g
   id="g12"
   style="fill:#F2E9E4">
	<g
   id="g10"
   style="fill:#F2E9E4">
		<path
   d="M384,152c0-48.52-39.48-88-88-88c-48.52,0-88,39.48-88,88c0,8.832,7.168,16,16,16c8.832,0,16-7.168,16-16    c0-30.88,25.12-56,56-56s56,25.12,56,56s-25.12,56-56,56h-48h-72h-40c-8.832,0-16,7.168-16,16c0,8.832,7.168,16,16,16h40h64    c30.88,0,56,25.12,56,56s-25.12,56-56,56s-56-25.12-56-56c0-8.832-7.168-16-16-16c-8.832,0-16,7.168-16,16c0,48.52,39.48,88,88,88    s88-39.48,88-88c0-21.448-7.736-41.112-20.536-56.4c0.952-0.208,1.88-0.488,2.76-0.856C351.992,231.904,384,195.672,384,152z"
   id="path8"
   style="fill:#F2E9E4" />
	</g>
</g>
<g
   id="g18"
   style="fill:#F2E9E4">
	<g
   id="g16"
   style="fill:#F2E9E4">
		<path
   d="M88,0C39.48,0,0,39.48,0,88c0,8.832,7.168,16,16,16c8.832,0,16-7.168,16-16c0-30.88,25.12-56,56-56s56,25.12,56,56    s-25.12,56-56,56H16c-8.832,0-16,7.168-16,16c0,8.832,7.168,16,16,16h72c48.52,0,88-39.48,88-88S136.52,0,88,0z"
   id="path14"
   style="fill:#F2E9E4" />
	</g>
</g>
<g
   id="g20"
   style="fill:#F2E9E4">
</g>
<g
   id="g22"
   style="fill:#F2E9E4">
</g>
<g
   id="g24"
   style="fill:#F2E9E4">
</g>
<g
   id="g26"
   style="fill:#F2E9E4">
</g>
<g
   id="g28"
   style="fill:#F2E9E4">
</g>
<g
   id="g30"
   style="fill:#F2E9E4">
</g>
<g
   id="g32"
   style="fill:#F2E9E4">
</g>
<g
   id="g34"
   style="fill:#F2E9E4">
</g>
<g
   id="g36"
   style="fill:#F2E9E4">
</g>
<g
   id="g38"
   style="fill:#F2E9E4">
</g>
<g
   id="g40"
   style="fill:#F2E9E4">
</g>
<g
   id="g42"
   style="fill:#F2E9E4">
</g>
<g
   id="g44"
   style="fill:#F2E9E4">
</g>
<g
   id="g46"
   style="fill:#F2E9E4">
</g>
<g
   id="g48"
   style="fill:#F2E9E4">
</g>
</svg>