<?xml version="1.0" encoding="UTF-8" standalone="no"?>
<!-- Generator: Adobe Illustrator 19.0.0, SVG Export Plug-In . SVG Version: 6.00 Build 0)  -->

<svg
   xmlns:dc="http://purl.org/dc/elements/1.1/"
   xmlns:cc="http://creativecommons.org/ns#"
   xmlns:rdf="http://www.w3.org/1999/02/22-rdf-syntax-ns#"
   xmlns:svg="http://www.w3.org/2000/svg"
   xmlns="http://www.w3.org/2000/svg"
   xmlns:sodipodi="http://sodipodi.sourceforge.net/DTD/sodipodi-0.dtd"
   xmlns:inkscape="http://www.inkscape.org/namespaces/inkscape"
   version="1.1"
   id="Capa_1"
   x="0px"
   y="0px"
   viewBox="0 0 59 59"
   style="enable-background:new 0 0 59 59;"
   xml:space="preserve"
   sodipodi:docname="umbrella.svg"
   inkscape:version="0.92.3 (2405546, 2018-03-11)"><metadata
   id="metadata39"><rdf:RDF><cc:Work
       rdf:about=""><dc:format>image/svg+xml</dc:format><dc:type
         rdf:resource="http://purl.org/dc/dcmitype/StillImage" /></cc:Work></rdf:RDF></metadata><defs
   id="defs37" /><sodipodi:namedview
   pagecolor="#ffffff"
   bordercolor="#666666"
   borderopacity="1"
   objecttolerance="10"
   gridtolerance="10"
   guidetolerance="10"
   inkscape:pageopacity="0"
   inkscape:pageshadow="2"
   inkscape:window-width="732"
   inkscape:window-height="480"
   id="namedview35"
   showgrid="false"
   inkscape:zoom="4"
   inkscape:cx="29.5"
   inkscape:cy="29.5"
   inkscape:window-x="0"
   inkscape:window-y="0"
   inkscape:window-maximized="0"
   inkscape:current-layer="Capa_1" />
<path
   d="M30.5,3.025V1c0-0.553-0.448-1-1-1s-1,0.447-1,1v2.025C15.363,3.552,4.69,14.388,4.502,27.64  c-0.003,0.268,0.136,0.614,0.324,0.805c0.437,0.441,1.234,0.421,1.647-0.043C7.855,26.853,9.64,26,11.5,26  c1.962,0,3.82,0.937,5.23,2.639C16.92,28.867,17.202,29,17.5,29s0.58-0.133,0.77-0.361C19.68,26.937,21.538,26,23.5,26  c1.86,0,3.62,0.85,5,2.386V54c0,1.654-1.346,3-3,3s-3-1.346-3-3c0-0.553-0.448-1-1-1s-1,0.447-1,1c0,2.757,2.243,5,5,5s5-2.243,5-5  V28.386C31.88,26.85,33.64,26,35.5,26c1.962,0,3.82,0.937,5.23,2.639C40.92,28.867,41.202,29,41.5,29s0.58-0.133,0.77-0.361  C43.68,26.937,45.538,26,47.5,26c1.86,0,3.645,0.853,5.025,2.4c0.416,0.467,1.213,0.486,1.648,0.044  c0.188-0.19,0.328-0.538,0.324-0.807C54.31,14.388,43.637,3.552,30.5,3.025z"
   id="path2"
   style="fill:#fff" />
<g
   id="g4">
</g>
<g
   id="g6">
</g>
<g
   id="g8">
</g>
<g
   id="g10">
</g>
<g
   id="g12">
</g>
<g
   id="g14">
</g>
<g
   id="g16">
</g>
<g
   id="g18">
</g>
<g
   id="g20">
</g>
<g
   id="g22">
</g>
<g
   id="g24">
</g>
<g
   id="g26">
</g>
<g
   id="g28">
</g>
<g
   id="g30">
</g>
<g
   id="g32">
</g>
</svg>